<?xml version="1.0" encoding="UTF-8" standalone="no"?>
<!-- Created with Inkscape (http://www.inkscape.org/) -->

<svg
   width="128.52245"
   height="48"
   viewBox="0 0 128.52245 48"
   version="1.1"
   id="svg5"
   inkscape:version="1.1.1 (3bf5ae0d25, 2021-09-20)"
   sodipodi:docname="db-logo-white.svg"
   xml:space="preserve"
   xmlns:inkscape="http://www.inkscape.org/namespaces/inkscape"
   xmlns:sodipodi="http://sodipodi.sourceforge.net/DTD/sodipodi-0.dtd"
   xmlns="http://www.w3.org/2000/svg"
   xmlns:svg="http://www.w3.org/2000/svg"><sodipodi:namedview
     id="namedview7"
     pagecolor="#ffffff"
     bordercolor="#000000"
     borderopacity="0.25"
     inkscape:showpageshadow="2"
     inkscape:pageopacity="0"
     inkscape:pagecheckerboard="0"
     inkscape:deskcolor="#d1d1d1"
     inkscape:document-units="px"
     showgrid="false"
     inkscape:zoom="8"
     inkscape:cx="60.0625"
     inkscape:cy="40.9375"
     inkscape:window-width="1920"
     inkscape:window-height="1009"
     inkscape:window-x="-8"
     inkscape:window-y="-8"
     inkscape:window-maximized="1"
     inkscape:current-layer="layer1"
     inkscape:pageshadow="2" /><defs
     id="defs2" /><g
     inkscape:label="Layer 1"
     inkscape:groupmode="layer"
     id="layer1"
     transform="translate(-121.50113,-815.5011)"><g
       id="g2919"
       inkscape:label="grid"
       style="display:none"><rect
         style="fill:#000000;fill-opacity:0.3;stroke-width:0.993879"
         id="rect234-1-7-9-9"
         width="1024"
         height="40"
         x="0"
         y="-40" /><rect
         style="fill:#000000;fill-opacity:0.1;stroke-width:1.49082"
         id="rect234-1-7-9-9-8"
         width="1024"
         height="90"
         x="0"
         y="0" /><g
         id="g7432"
         transform="scale(1,1.5364583)"><rect
           style="fill:#7bcc03;fill-opacity:0.3;stroke-width:1.05417"
           id="rect234"
           width="60"
           height="768"
           x="42.000023"
           y="0" /><rect
           style="fill:#eef10a;fill-opacity:0.3;stroke-width:0.608625"
           id="rect234-1"
           width="20"
           height="768"
           x="102.00002"
           y="0" /><rect
           style="fill:#7bcc03;fill-opacity:0.3;stroke-width:1.05417"
           id="rect234-2"
           width="60"
           height="768"
           x="122.00002"
           y="0" /><rect
           style="fill:#eef10a;fill-opacity:0.3;stroke-width:0.608625"
           id="rect234-1-7"
           width="20"
           height="768"
           x="182.00002"
           y="0" /><rect
           style="fill:#7bcc03;fill-opacity:0.3;stroke-width:1.05417"
           id="rect234-4"
           width="60"
           height="768"
           x="202.00002"
           y="0" /><rect
           style="fill:#eef10a;fill-opacity:0.3;stroke-width:0.608625"
           id="rect234-1-3"
           width="20"
           height="768"
           x="262"
           y="0" /><rect
           style="fill:#7bcc03;fill-opacity:0.3;stroke-width:1.05417"
           id="rect234-2-9"
           width="60"
           height="768"
           x="282"
           y="0" /><rect
           style="fill:#eef10a;fill-opacity:0.3;stroke-width:0.608625"
           id="rect234-1-7-3"
           width="20"
           height="768"
           x="342"
           y="0" /><rect
           style="fill:#7bcc03;fill-opacity:0.3;stroke-width:1.05417"
           id="rect234-5"
           width="60"
           height="768"
           x="362"
           y="0" /><rect
           style="fill:#eef10a;fill-opacity:0.3;stroke-width:0.608625"
           id="rect234-1-8"
           width="20"
           height="768"
           x="422"
           y="0" /><rect
           style="fill:#7bcc03;fill-opacity:0.3;stroke-width:1.05417"
           id="rect234-2-4"
           width="60"
           height="768"
           x="442"
           y="0" /><rect
           style="fill:#eef10a;fill-opacity:0.3;stroke-width:0.608625"
           id="rect234-1-7-9"
           width="20"
           height="768"
           x="502"
           y="0" /><rect
           style="fill:#7bcc03;fill-opacity:0.3;stroke-width:1.05417"
           id="rect234-4-3"
           width="60"
           height="768"
           x="522"
           y="0" /><rect
           style="fill:#eef10a;fill-opacity:0.3;stroke-width:0.608625"
           id="rect234-1-3-4"
           width="20"
           height="768"
           x="582"
           y="0" /><rect
           style="fill:#7bcc03;fill-opacity:0.3;stroke-width:1.05417"
           id="rect234-2-9-8"
           width="60"
           height="768"
           x="602"
           y="0" /><rect
           style="fill:#eef10a;fill-opacity:0.3;stroke-width:0.608625"
           id="rect234-1-7-3-8"
           width="20"
           height="768"
           x="662"
           y="0" /><rect
           style="fill:#7bcc03;fill-opacity:0.3;stroke-width:1.05417"
           id="rect234-15"
           width="60"
           height="768"
           x="682"
           y="0" /><rect
           style="fill:#eef10a;fill-opacity:0.3;stroke-width:0.608625"
           id="rect234-1-2"
           width="20"
           height="768"
           x="742.00006"
           y="0" /><rect
           style="fill:#7bcc03;fill-opacity:0.3;stroke-width:1.05417"
           id="rect234-2-6"
           width="60"
           height="768"
           x="762.00006"
           y="0" /><rect
           style="fill:#eef10a;fill-opacity:0.3;stroke-width:0.608625"
           id="rect234-1-7-4"
           width="20"
           height="768"
           x="822.00006"
           y="0" /><rect
           style="fill:#7bcc03;fill-opacity:0.3;stroke-width:1.05417"
           id="rect234-4-4"
           width="60"
           height="768"
           x="842.00006"
           y="0" /><rect
           style="fill:#eef10a;fill-opacity:0.3;stroke-width:0.608625"
           id="rect234-1-3-8"
           width="20"
           height="768"
           x="902.00006"
           y="0" /><rect
           style="fill:#7bcc03;fill-opacity:0.3;stroke-width:1.05417"
           id="rect234-2-9-3"
           width="60"
           height="768"
           x="922.00006"
           y="0" /></g><rect
         style="fill:#000000;fill-opacity:0.1;stroke-width:0.54437"
         id="rect3018"
         width="1024"
         height="12"
         x="0"
         y="78" /><rect
         style="display:inline;fill:#000000;fill-opacity:0.1;stroke-width:0.54437"
         id="rect3018-2"
         width="1024"
         height="12"
         x="42.000023"
         y="804" /><rect
         style="fill:#000000;fill-opacity:0.1;stroke-width:0.544371"
         id="rect3020"
         width="1024"
         height="12"
         x="0"
         y="0" /><rect
         style="fill:#000000;fill-opacity:0.1;stroke-width:1.08874"
         id="rect3518"
         width="1024"
         height="48"
         x="-7.6293945e-06"
         y="94" /><rect
         style="display:inline;fill:#000000;fill-opacity:0.1;stroke-width:1.08874"
         id="rect3518-0"
         width="1024"
         height="48"
         x="42.000023"
         y="768" /><rect
         style="display:inline;fill:#000000;fill-opacity:0.1;stroke-width:1.08874"
         id="rect3518-0-7"
         width="1024"
         height="48"
         x="42.000023"
         y="890.89111" /><rect
         style="fill:#000000;fill-opacity:0.1;stroke-width:1.08874"
         id="rect3551"
         width="1024"
         height="48"
         x="-7.6293945e-06"
         y="224.84799" /><rect
         style="display:inline;fill:#000000;fill-opacity:0.1;stroke-width:0.54437"
         id="rect3018-2-9"
         width="1024"
         height="12"
         x="42.000023"
         y="890.89111" /></g><path
       style="fill:#ffffff;stroke-width:0.116153"
       d="m 170.50587,863.08294 c 0,-0.12676 0.17839,-0.61677 0.39643,-1.08894 0.21802,-0.47216 0.60406,-1.4073 0.85783,-2.07808 0.25379,-0.67077 0.57519,-1.50709 0.71423,-1.85845 l 0.25282,-0.63885 -0.90738,0.87812 c -2.2926,2.21864 -3.61043,3.24533 -4.16567,3.24533 -0.69097,0 -1.39286,-1.61527 -1.11087,-2.55648 0.15112,-0.50439 0.49355,-0.84821 0.78878,-0.79196 0.16611,0.0316 0.22448,0.18066 0.26999,0.68926 0.0965,1.07838 0.58738,1.37159 1.44994,0.86611 0.66638,-0.39053 1.79493,-1.63852 2.19278,-2.42483 0.40525,-0.80098 0.40329,-1.62578 -0.004,-1.68379 -0.29345,-0.0418 -0.93803,0.2672 -2.04522,0.98045 -0.43322,0.27908 -0.85848,0.5074 -0.94503,0.5074 -0.16394,0 -0.53231,-0.66442 -0.53231,-0.96015 0,-0.52035 0.92196,-1.13722 2.36435,-1.58199 1.08224,-0.33371 1.86168,-0.32903 2.10097,0.0127 0.28851,0.4119 0.22459,1.21703 -0.16139,2.03294 -0.21583,0.45619 -0.29767,0.75043 -0.22181,0.79732 0.21928,0.13553 1.43081,-1.25938 1.96389,-2.26117 0.67878,-1.27559 0.87365,-1.47293 1.55542,-1.57517 0.8085,-0.12124 0.88286,0.032 0.37422,0.77158 -0.4019,0.58435 -2.51644,5.06201 -2.51644,5.3287 0,0.23848 0.20969,0.0444 1.91535,-1.77233 2.2441,-2.39029 3.29741,-3.14214 3.7845,-2.70133 0.44347,0.40134 0.16278,1.45613 -0.5163,1.94009 -0.28028,0.19976 -0.49964,0.2527 -0.96111,0.23197 -0.5358,-0.0241 -0.63543,0.0117 -0.95888,0.34233 -0.41481,0.42428 -0.82432,1.20928 -0.82432,1.58011 0,0.60806 0.90973,0.97782 1.78254,0.72453 0.47324,-0.13734 1.2729,-0.62703 2.02147,-1.23792 0.33733,-0.27526 0.3775,-0.28484 0.3775,-0.09 0,0.26444 -1.77361,2.01244 -2.52617,2.4897 -1.33399,0.84599 -2.50472,-0.027 -2.30582,-1.71922 l 0.0749,-0.63619 -0.57577,0.48207 c -0.91539,0.76641 -1.65898,1.64466 -2.14265,2.53074 -0.47665,0.87315 -0.89934,1.27248 -1.46712,1.38604 -0.29464,0.059 -0.34952,0.0338 -0.34952,-0.16056 z M 151.337,861.71965 c -0.73683,-0.23767 -1.42175,-0.86368 -1.74562,-1.59541 -0.35762,-0.80798 -0.36353,-2.16434 -0.0137,-3.13911 0.51043,-1.42227 2.03024,-3.30376 3.85365,-4.7707 0.47912,-0.38547 0.91447,-0.73795 0.96743,-0.78329 0.16972,-0.14534 -1.21362,0.0132 -2.70602,0.30992 -2.05163,0.40804 -2.54337,0.6915 -1.54275,0.88938 0.71554,0.14152 0.60549,0.28555 -0.17423,0.22803 -1.15227,-0.085 -1.36018,-0.16913 -1.3997,-0.5663 -0.0448,-0.44977 0.37328,-1.5697 0.75545,-2.02389 0.37716,-0.44824 0.9848,-0.75691 1.97754,-1.0046 1.14875,-0.28658 6.03925,-0.28848 7.52341,-0.002 2.05536,0.39547 2.11826,0.43757 2.46244,1.64741 0.17221,0.60541 0.17222,0.67327 10e-6,0.84546 -0.17221,0.17222 -0.31581,0.17159 -1.78945,-0.008 -0.88124,-0.10725 -2.22946,-0.24714 -2.99607,-0.31075 l -1.39384,-0.11571 -0.83666,0.86375 c -0.95617,0.98714 -2.03792,2.40733 -2.70955,3.55734 -0.2536,0.43421 -0.46108,0.80714 -0.46108,0.82873 0,0.0216 0.36276,-0.30938 0.80613,-0.73552 1.02336,-0.98359 1.95629,-1.45405 3.19084,-1.60907 1.58945,-0.19959 2.86692,0.16384 3.2621,0.92806 0.40835,0.78965 0.31128,2.0929 -0.23997,3.22132 -1.08268,2.21639 -4.72616,4.01156 -6.79035,3.34568 z m 2.50085,-1.14809 c 0.82791,-0.43391 2.43981,-1.93806 3.03043,-2.82786 0.72579,-1.09346 0.60027,-1.95291 -0.35119,-2.4044 -1.57119,-0.74558 -4.40599,0.71852 -5.26195,2.71768 -0.25002,0.58391 -0.23984,1.99016 0.0173,2.38252 0.46947,0.7165 1.36262,0.76247 2.56548,0.13206 z m 8.09241,0.77116 c -0.14886,-0.0284 -0.47347,-0.25438 -0.72138,-0.5023 -0.55786,-0.55785 -0.86843,-1.50351 -0.76913,-2.34192 0.23728,-2.00353 3.27142,-4.52693 4.72114,-3.92643 0.36431,0.1509 0.47392,0.52772 0.22573,0.7759 -0.0888,0.0888 -0.0391,0.14613 0.17246,0.19924 0.54655,0.13718 0.54765,1.12949 0.002,2.43212 -0.16497,0.39434 -0.30917,0.79536 -0.32042,0.89115 -0.0294,0.25093 0.46121,0.28598 0.80943,0.0578 0.33862,-0.22187 0.40428,-0.19651 0.32052,0.12379 -0.0871,0.33295 -0.72162,0.72422 -1.32463,0.81678 -0.39467,0.0607 -0.65832,0.2058 -1.07651,0.59296 -0.3046,0.28198 -0.77503,0.61313 -1.04538,0.73586 -0.5044,0.22896 -0.53246,0.23307 -0.9945,0.14504 z m 1.36686,-1.49214 0.54689,-0.29767 -0.008,-0.95099 c -0.008,-0.8935 0.0211,-1.0103 0.48188,-1.93191 0.2697,-0.53951 0.47773,-0.99354 0.4623,-1.00897 -0.0818,-0.0818 -2.1763,1.41929 -2.54159,1.82132 -0.6922,0.76184 -0.95526,2.37319 -0.42222,2.58644 0.36726,0.14691 0.97477,0.0575 1.48122,-0.21822 z m 37.7571,0.99674 c -3.86196,-0.0549 -4.17752,-0.0738 -3.54267,-0.21272 3.62479,-0.79307 4.72493,-1.17165 7.35428,-2.53074 l 1.66277,-0.85947 h 10.71451 c 10.54528,0 10.72992,-0.004 11.69181,-0.24715 1.9889,-0.50295 3.55229,-1.33547 4.85339,-2.58453 1.29338,-1.2416 2.09963,-2.5828 2.59789,-4.32159 0.35636,-1.24361 0.38371,-4.08329 0.0513,-5.33322 -0.64266,-2.41697 -2.13901,-4.49306 -4.22578,-5.86301 -1.18501,-0.77794 -2.36546,-1.25096 -3.93323,-1.57606 -2.20645,-0.45755 -2.32981,-0.58842 -2.56238,-2.71849 -0.34147,-3.12765 -1.30533,-5.44554 -3.17967,-7.64657 -1.52166,-1.78689 -4.00356,-3.32639 -6.32699,-3.92454 -1.5683,-0.40378 -3.84767,-0.50413 -5.37682,-0.23673 -4.09811,0.71661 -7.30524,3.17887 -9.28741,7.13029 l -0.66529,1.32622 1.59972,1.5287 c 0.87984,0.84077 1.70274,1.68496 1.82865,1.87599 0.28313,0.42954 0.29466,1.06444 0.0264,1.45599 -0.11137,0.16259 -2.16917,2.24025 -4.57288,4.617 -4.91661,4.86153 -5.0761,4.97948 -6.06016,4.48221 -0.20445,-0.10329 -4.22231,-4.0627 -8.92857,-8.79864 l -8.55684,-8.61077 -8.69205,8.68228 c -6.44317,6.43594 -8.78968,8.71028 -9.06943,8.79052 -0.43224,0.12397 -0.99721,-0.002 -1.32037,-0.29453 -0.28603,-0.25884 -0.39436,-0.89891 -0.22242,-1.31404 0.20537,-0.49579 27.33752,-27.45489 27.7582,-27.58115 0.87106,-0.26143 0.73332,-0.37875 7.28467,6.20641 l 6.12171,6.1533 0.41838,-0.78601 c 1.42159,-2.67068 3.57437,-4.90938 6.18993,-6.43695 3.23462,-1.88912 7.25638,-2.63254 10.94652,-2.02346 1.34918,0.22269 3.51064,0.91721 4.6673,1.49968 2.97748,1.49944 5.60128,4.08996 7.09226,7.00229 0.89689,1.75195 1.64449,4.15614 1.79836,5.78351 0.0305,0.32193 0.0813,0.35158 1.01934,0.59512 2.57347,0.66809 4.34847,1.73213 6.36257,3.81408 1.90771,1.97198 2.96581,3.97397 3.58247,6.77823 0.26943,1.2251 0.26727,3.93033 -0.004,5.18063 -0.63343,2.91843 -1.86833,5.13663 -4.00777,7.19907 -1.83636,1.77025 -3.5739,2.7224 -6.22357,3.41041 -1.1388,0.29571 -1.26728,0.30335 -6.56267,0.39056 -5.81599,0.0958 -15.47722,0.0949 -22.30145,-0.002 z m 0.23232,-25.6969 c 0,-0.1157 -16.03099,-16.23666 -16.14605,-16.23666 -0.0465,0 -1.64262,1.59787 -3.54705,3.55081 l -3.46263,3.55082 8.12229,8.13169 8.12231,8.13172 3.45556,-3.51813 c 1.90055,-1.93499 3.45557,-3.55959 3.45557,-3.61025 z m -17.547,25.51108 c -0.29869,-0.35991 -0.16264,-1.20533 0.39912,-2.48015 0.29372,-0.66654 0.51765,-1.22826 0.49763,-1.24829 -0.0201,-0.0201 -0.44156,0.48334 -0.93673,1.1186 -1.13771,1.45953 -1.96841,2.30574 -2.35999,2.40401 -0.73742,0.1851 -1.31738,-0.58946 -1.3995,-1.86908 -0.067,-1.04419 0.12167,-1.51413 1.09851,-2.73605 1.30642,-1.63418 1.34272,-1.66224 2.07163,-1.60178 0.35028,0.029 0.67099,0.0869 0.71271,0.12863 0.15383,0.15384 -0.78112,1.34932 -1.74564,2.23207 -0.88781,0.81253 -1.00168,0.96373 -1.07027,1.42112 -0.10422,0.69527 0.11477,0.94324 0.60611,0.68621 0.54011,-0.28255 2.61825,-2.18947 3.26345,-2.99456 0.32742,-0.40855 0.90649,-1.04845 1.28684,-1.42199 0.828,-0.81317 1.10859,-0.84247 1.1615,-0.12124 0.0312,0.4252 -0.0558,0.6086 -0.82572,1.74129 -1.13043,1.66298 -1.37964,2.16628 -1.33546,2.69706 0.0305,0.36654 0.0799,0.43255 0.34727,0.46343 0.35315,0.0408 0.88469,-0.20311 1.50537,-0.69077 0.49346,-0.3877 0.56444,-0.404 0.56298,-0.12927 -9.6e-4,0.2176 -1.82556,1.88973 -2.53398,2.32247 -0.49824,0.30435 -1.08882,0.33975 -1.30583,0.0783 z m 8.05872,0.0924 c -0.0759,-0.0482 -0.19411,-0.23547 -0.26278,-0.41609 -0.15929,-0.41893 -0.0288,-0.9179 0.63294,-2.42168 0.27506,-0.62499 0.48304,-1.13634 0.4622,-1.13634 -0.0208,0 -0.45452,0.53965 -0.96369,1.19926 -1.71473,2.22123 -2.38508,2.75137 -3.0225,2.39031 -0.72624,-0.41137 -1.0734,-2.13994 -0.63035,-3.13862 0.23868,-0.53802 1.35718,-1.98396 2.04552,-2.64432 0.38019,-0.36477 0.45209,-0.38894 1.00047,-0.33623 0.32495,0.0312 0.61968,0.0856 0.65492,0.12085 0.16159,0.16159 -0.4275,0.93913 -1.53558,2.02683 -1.09376,1.07365 -1.21507,1.23507 -1.27902,1.7016 -0.0596,0.43484 -0.0353,0.53437 0.15592,0.63667 0.17253,0.0924 0.30754,0.0714 0.56593,-0.0878 0.56319,-0.34701 2.31581,-1.93283 2.85441,-2.58278 0.2777,-0.33511 0.89505,-1.01929 1.37185,-1.52041 1.01921,-1.07115 1.31779,-1.1486 1.37534,-0.35679 0.0322,0.44374 -0.0508,0.61309 -0.94145,1.92195 -1.24547,1.83006 -1.50725,2.59253 -0.99938,2.9107 0.26953,0.16886 0.67879,0.0304 1.46864,-0.49712 0.76587,-0.51142 0.84337,-0.54009 0.84337,-0.31193 0,0.18594 -2.18827,2.14448 -2.70953,2.42509 -0.39191,0.21099 -0.86009,0.26132 -1.08723,0.11689 z m 1.41562,-8.09789 c -0.80703,-0.28547 -1.60771,-1.34272 -1.40902,-1.86051 0.0891,-0.23212 0.41609,-0.35281 0.59439,-0.21937 0.0777,0.0581 0.36582,0.27547 0.64048,0.4831 0.43784,0.33097 0.58754,0.37749 1.21474,0.37749 0.61299,0 0.81304,-0.0588 1.3978,-0.41092 0.78736,-0.47414 1.03077,-0.47658 1.08419,-0.0106 0.0308,0.26886 -0.0695,0.43484 -0.53361,0.88211 -0.88723,0.85517 -1.95249,1.12569 -2.98897,0.75903 z m -29.65164,-2.93255 0.0325,-1.48096 0.37711,-0.0363 c 0.29762,-0.0286 0.39418,-0.10207 0.45797,-0.34847 0.0444,-0.17164 0.47585,-1.90629 0.95863,-3.85477 l 0.8778,-3.54268 1.06137,-0.0332 1.06135,-0.0332 0.96499,3.88966 0.96499,3.88968 0.41287,0.0347 0.41287,0.0347 0.0325,1.48096 c 0.0179,0.81454 -0.0106,1.48096 -0.0645,1.48096 -0.0533,0 -0.43095,-0.23522 -0.83922,-0.52269 l -0.74228,-0.52269 h -2.19247 -2.19244 l -0.73249,0.52269 c -0.40287,0.28747 -0.76662,0.52269 -0.80832,0.52269 -0.0417,0 -0.0612,-0.66642 -0.0434,-1.48096 z m 4.62056,-1.6013 c 0,-0.0343 -0.12648,-0.80519 -0.28106,-1.71324 -0.1546,-0.90807 -0.31756,-2.00456 -0.36217,-2.43667 -0.0445,-0.4321 -0.1272,-0.81415 -0.18356,-0.84896 -0.0564,-0.0348 -0.10248,-0.0456 -0.10248,-0.0243 0,0.0215 -0.10398,0.77726 -0.23104,1.6795 -0.203,1.44123 -0.32407,2.15753 -0.53153,3.14455 -0.0531,0.25273 -0.0262,0.26134 0.81844,0.26134 0.48035,0 0.87335,-0.028 0.87335,-0.0623 z m 5.98863,1.98668 c -0.57993,-0.21541 -0.9458,-0.489 -1.39385,-1.04228 l -0.35518,-0.43861 -0.0343,-3.18408 c -0.0317,-2.95221 -0.0177,-3.22152 0.1932,-3.69832 0.4339,-0.98094 1.65113,-1.54652 3.08126,-1.43173 1.21801,0.0977 2.23268,0.82697 2.50246,1.79841 0.16857,0.60707 0.1609,5.74498 -0.009,6.31353 -0.17802,0.59417 -0.71361,1.22113 -1.30154,1.52359 -0.62248,0.32023 -2.02535,0.40363 -2.68262,0.15949 z m 1.85701,-1.97721 0.28511,-0.2851 v -2.53481 c 0,-2.8281 -0.0332,-2.96613 -0.74605,-3.09984 -0.2548,-0.0479 -0.55517,-0.0122 -0.81591,0.0967 l -0.41265,0.17242 v 2.78702 c 0,2.74835 0.004,2.78954 0.25815,2.96783 0.40359,0.28269 1.09473,0.23234 1.43135,-0.10433 z m 3.76971,-2.85104 c 0,-2.68314 0.0391,-4.87529 0.0871,-4.87143 0.048,0.004 0.81887,0.83871 1.71324,1.85523 0.89441,1.01651 1.65229,1.84961 1.68424,1.85133 0.0318,9.6e-4 0.78984,-0.82969 1.68422,-1.84756 0.89438,-1.01787 1.66535,-1.85412 1.71327,-1.85835 0.048,-0.005 0.0871,2.18764 0.0871,4.87078 v 4.87844 h -0.9873 -0.98731 l -0.004,-2.52632 -0.004,-2.52636 -0.75188,0.81309 -0.75188,0.81308 -0.76165,-0.81308 -0.76166,-0.81309 0.0776,2.52636 0.0777,2.52632 h -1.05825 -1.05823 v -4.87844 z m -17.43195,-10.56103 -0.33953,-0.33952 v -3.78969 c 0,-4.11151 0.0248,-4.29035 0.63559,-4.56861 0.21621,-0.0985 1.40156,-0.13877 4.0857,-0.13877 h 3.78115 l 0.39491,0.39493 c 0.30681,0.30679 0.39492,0.49079 0.39492,0.82468 0,0.33388 -0.0882,0.51789 -0.39492,0.82469 l -0.39491,0.39491 h -3.03162 -3.03159 v 3.06775 3.06774 l -0.35738,0.30072 c -0.52276,0.43987 -1.28052,0.42299 -1.74232,-0.0387 z"
       id="path1470" /></g></svg>
