<?xml version="1.0" encoding="UTF-8" standalone="no"?>
<!-- Created with Inkscape (http://www.inkscape.org/) -->

<svg
   width="160.92862"
   height="66"
   viewBox="0 0 160.92862 66"
   version="1.1"
   id="svg5"
   inkscape:version="1.2.1 (9c6d41e410, 2022-07-14)"
   sodipodi:docname="ne-logo.svg"
   xml:space="preserve"
   xmlns:inkscape="http://www.inkscape.org/namespaces/inkscape"
   xmlns:sodipodi="http://sodipodi.sourceforge.net/DTD/sodipodi-0.dtd"
   xmlns="http://www.w3.org/2000/svg"
   xmlns:svg="http://www.w3.org/2000/svg"><sodipodi:namedview
     id="namedview7"
     pagecolor="#ffffff"
     bordercolor="#000000"
     borderopacity="0.25"
     inkscape:showpageshadow="2"
     inkscape:pageopacity="0.0"
     inkscape:pagecheckerboard="0"
     inkscape:deskcolor="#d1d1d1"
     inkscape:document-units="px"
     showgrid="false"
     inkscape:zoom="2.8284271"
     inkscape:cx="110.83899"
     inkscape:cy="-3.5355339"
     inkscape:window-width="1366"
     inkscape:window-height="705"
     inkscape:window-x="-8"
     inkscape:window-y="-8"
     inkscape:window-maximized="1"
     inkscape:current-layer="g3064" /><defs
     id="defs2" /><g
     inkscape:label="Layer 1"
     inkscape:groupmode="layer"
     id="layer1"
     transform="translate(-122.00002,-12)"><g
       id="g2919"
       inkscape:label="grid"
       style="display:none"><rect
         style="fill:#7bcc03;fill-opacity:0.3;stroke-width:1.05417"
         id="rect234"
         width="60"
         height="768"
         x="42.000023"
         y="0" /><rect
         style="fill:#eef10a;fill-opacity:0.3;stroke-width:0.608625"
         id="rect234-1"
         width="20"
         height="768"
         x="102.00002"
         y="0" /><rect
         style="fill:#7bcc03;fill-opacity:0.3;stroke-width:1.05417"
         id="rect234-2"
         width="60"
         height="768"
         x="122.00002"
         y="0" /><rect
         style="fill:#eef10a;fill-opacity:0.3;stroke-width:0.608625"
         id="rect234-1-7"
         width="20"
         height="768"
         x="182.00002"
         y="0" /><rect
         style="fill:#7bcc03;fill-opacity:0.3;stroke-width:1.05417"
         id="rect234-4"
         width="60"
         height="768"
         x="202.00002"
         y="0" /><rect
         style="fill:#eef10a;fill-opacity:0.3;stroke-width:0.608625"
         id="rect234-1-3"
         width="20"
         height="768"
         x="262"
         y="0" /><rect
         style="fill:#7bcc03;fill-opacity:0.3;stroke-width:1.05417"
         id="rect234-2-9"
         width="60"
         height="768"
         x="282"
         y="0" /><rect
         style="fill:#eef10a;fill-opacity:0.3;stroke-width:0.608625"
         id="rect234-1-7-3"
         width="20"
         height="768"
         x="342"
         y="0" /><rect
         style="fill:#7bcc03;fill-opacity:0.3;stroke-width:1.05417"
         id="rect234-5"
         width="60"
         height="768"
         x="362"
         y="0" /><rect
         style="fill:#eef10a;fill-opacity:0.3;stroke-width:0.608625"
         id="rect234-1-8"
         width="20"
         height="768"
         x="422"
         y="0" /><rect
         style="fill:#7bcc03;fill-opacity:0.3;stroke-width:1.05417"
         id="rect234-2-4"
         width="60"
         height="768"
         x="442"
         y="0" /><rect
         style="fill:#eef10a;fill-opacity:0.3;stroke-width:0.608625"
         id="rect234-1-7-9"
         width="20"
         height="768"
         x="502"
         y="0" /><rect
         style="fill:#000000;fill-opacity:0.3;stroke-width:0.993879"
         id="rect234-1-7-9-9"
         width="1024"
         height="40"
         x="0"
         y="-40" /><rect
         style="fill:#000000;fill-opacity:0.1;stroke-width:1.49082"
         id="rect234-1-7-9-9-8"
         width="1024"
         height="90"
         x="0"
         y="0" /><rect
         style="fill:#7bcc03;fill-opacity:0.3;stroke-width:1.05417"
         id="rect234-4-3"
         width="60"
         height="768"
         x="522"
         y="0" /><rect
         style="fill:#eef10a;fill-opacity:0.3;stroke-width:0.608625"
         id="rect234-1-3-4"
         width="20"
         height="768"
         x="582"
         y="0" /><rect
         style="fill:#7bcc03;fill-opacity:0.3;stroke-width:1.05417"
         id="rect234-2-9-8"
         width="60"
         height="768"
         x="602"
         y="0" /><rect
         style="fill:#eef10a;fill-opacity:0.3;stroke-width:0.608625"
         id="rect234-1-7-3-8"
         width="20"
         height="768"
         x="662"
         y="0" /><rect
         style="fill:#7bcc03;fill-opacity:0.3;stroke-width:1.05417"
         id="rect234-15"
         width="60"
         height="768"
         x="682"
         y="0" /><rect
         style="fill:#eef10a;fill-opacity:0.3;stroke-width:0.608625"
         id="rect234-1-2"
         width="20"
         height="768"
         x="742.00006"
         y="0" /><rect
         style="fill:#7bcc03;fill-opacity:0.3;stroke-width:1.05417"
         id="rect234-2-6"
         width="60"
         height="768"
         x="762.00006"
         y="0" /><rect
         style="fill:#eef10a;fill-opacity:0.3;stroke-width:0.608625"
         id="rect234-1-7-4"
         width="20"
         height="768"
         x="822.00006"
         y="0" /><rect
         style="fill:#7bcc03;fill-opacity:0.3;stroke-width:1.05417"
         id="rect234-4-4"
         width="60"
         height="768"
         x="842.00006"
         y="0" /><rect
         style="fill:#eef10a;fill-opacity:0.3;stroke-width:0.608625"
         id="rect234-1-3-8"
         width="20"
         height="768"
         x="902.00006"
         y="0" /><rect
         style="fill:#7bcc03;fill-opacity:0.3;stroke-width:1.05417"
         id="rect234-2-9-3"
         width="60"
         height="768"
         x="922.00006"
         y="0" /><rect
         style="fill:#000000;fill-opacity:0.1;stroke-width:0.54437"
         id="rect3018"
         width="1024"
         height="12"
         x="0"
         y="78" /><rect
         style="fill:#000000;fill-opacity:0.1;stroke-width:0.544371"
         id="rect3020"
         width="1024"
         height="12"
         x="0"
         y="0" /><rect
         style="fill:#000000;fill-opacity:0.1;stroke-width:1.08874"
         id="rect3518"
         width="1024"
         height="48"
         x="-7.6293945e-06"
         y="94" /><rect
         style="fill:#000000;fill-opacity:0.1;stroke-width:1.08874"
         id="rect3551"
         width="1024"
         height="48"
         x="-7.6293945e-06"
         y="224.84799" /></g><rect
       style="fill:#ffffff;stroke-width:9.45357"
       id="rect6107"
       width="160.92863"
       height="66"
       x="122.00002"
       y="12"
       inkscape:export-filename="..\..\..\Visual\ne-logo-bw.png"
       inkscape:export-xdpi="300"
       inkscape:export-ydpi="300" /><g
       id="g3064"
       inkscape:label="logo"
       style="display:inline"
       transform="matrix(0.35610987,0,0,0.35610987,33.680472,97.858613)"><g
         id="g890"
         style="display:inline"><rect
           style="display:inline;fill:#7bcc03;fill-opacity:1;stroke:none;stroke-width:1.0918;stroke-dasharray:none;stroke-opacity:1"
           id="rect3022"
           width="167.44963"
           height="167.44966"
           x="248.01208"
           y="-223.21507" /><path
           id="path3024"
           style="display:inline;fill:#eef10a;fill-opacity:1;stroke-width:1.0918"
           d="M 415.46173,-223.215 V -55.765371 H 248.01213 Z"
           sodipodi:nodetypes="cccc" /><rect
           style="display:inline;fill:#eef10a;fill-opacity:1;stroke:none;stroke-width:0.854347;stroke-dasharray:none;stroke-opacity:1"
           id="rect3026"
           width="131.03006"
           height="131.03014"
           x="266.22189"
           y="-205.00528" /><path
           id="path3028"
           style="display:inline;fill:#7bcc03;fill-opacity:1;stroke-width:0.854343"
           d="M 397.25197,-205.00527 V -73.975141 H 266.2219 Z"
           sodipodi:nodetypes="cccc" /><path
           id="path3030"
           style="display:inline;fill:#7bcc03;fill-opacity:1;stroke-width:0.408952"
           d="m 248.01213,-97.775271 v -62.719899 h 62.71981 z"
           sodipodi:nodetypes="cccc" /><path
           id="path3032"
           style="display:inline;fill:#eef10a;fill-opacity:1;stroke-width:0.408952"
           d="m 352.74184,-118.48523 v 62.719819 h -62.71971 z"
           sodipodi:nodetypes="cccc" /></g><g
         aria-label="ВЫХОД !ЕСТЬ"
         id="g3056"
         style="font-size:7.251px;line-height:0.83;letter-spacing:0.079375px;display:inline;fill:#333333;stroke-width:0.2"
         transform="matrix(9.633956,0,0,9.633956,90.383885,-1318.3862)"><path
           d="m 34.984885,124.74741 v -5.11195 h 2.46534 q 0.826614,0 1.276176,0.36255 0.456813,0.3553 0.456813,0.95713 0,0.39881 -0.203028,0.6961 -0.195777,0.29729 -0.551076,0.44231 0.427809,0.13052 0.659841,0.44231 0.232032,0.30454 0.232032,0.76135 0,0.67435 -0.485817,1.0659 -0.478566,0.3843 -1.312431,0.3843 z m 1.276176,-3.08167 h 0.949881 q 0.36255,0 0.529323,-0.13052 0.174024,-0.13052 0.174024,-0.3988 0,-0.26829 -0.174024,-0.39156 -0.166773,-0.13052 -0.529323,-0.13052 h -0.949881 z m 0,2.10279 h 1.080399 q 0.369801,0 0.536574,-0.13777 0.174024,-0.14502 0.174024,-0.42781 0,-0.28279 -0.174024,-0.42056 -0.166773,-0.13777 -0.536574,-0.13777 h -1.080399 z"
           style="font-weight:900;font-family:'Nunito Sans';-inkscape-font-specification:'Nunito Sans Heavy'"
           id="path3034" /><path
           d="m 40.154459,124.74741 v -5.11195 h 1.334184 v 1.98677 h 0.986136 q 0.833865,0 1.312431,0.40606 0.485817,0.40605 0.485817,1.15291 0,0.7541 -0.485817,1.16016 -0.478566,0.40605 -1.312431,0.40605 z m 4.676895,0 v -5.11195 h 1.326933 v 5.11195 z m -3.342711,-1.00789 h 0.804861 q 0.369801,0 0.536574,-0.13776 0.174024,-0.13777 0.174024,-0.42056 0,-0.27554 -0.174024,-0.41331 -0.166773,-0.13777 -0.536574,-0.13777 h -0.804861 z"
           style="font-weight:900;font-family:'Nunito Sans';-inkscape-font-specification:'Nunito Sans Heavy'"
           id="path3036" /><path
           d="m 46.527707,124.74741 1.95777,-2.58135 -1.914264,-2.5306 h 1.544463 l 1.123905,1.56621 1.123905,-1.56621 H 51.9152 l -1.914264,2.5306 1.950519,2.58135 h -1.551714 l -1.16016,-1.60972 -1.16016,1.60972 z"
           style="font-weight:900;font-family:'Nunito Sans';-inkscape-font-specification:'Nunito Sans Heavy'"
           id="path3038" /><path
           d="m 54.597687,124.82717 q -0.775857,0 -1.363188,-0.32629 -0.58008,-0.33355 -0.906375,-0.92813 -0.326295,-0.59458 -0.326295,-1.38494 0,-0.79761 0.319044,-1.38494 0.326295,-0.59458 0.913626,-0.92088 0.587331,-0.32629 1.363188,-0.32629 0.775857,0 1.355937,0.32629 0.587331,0.3263 0.913626,0.92088 0.326295,0.58733 0.326295,1.38494 0,0.79036 -0.326295,1.38494 -0.326295,0.59458 -0.913626,0.92813 -0.58008,0.32629 -1.355937,0.32629 z m 0,-1.11665 q 0.565578,0 0.884622,-0.3988 0.326295,-0.40606 0.326295,-1.12391 0,-0.71785 -0.319044,-1.11665 -0.319044,-0.39881 -0.891873,-0.39881 -0.572829,0 -0.891873,0.39881 -0.319044,0.3988 -0.319044,1.11665 0,0.71785 0.319044,1.12391 0.319044,0.3988 0.891873,0.3988 z"
           style="font-weight:900;font-family:'Nunito Sans';-inkscape-font-specification:'Nunito Sans Heavy'"
           id="path3040" /><path
           d="m 57.533946,126.01634 v -2.29857 h 0.514821 q 0.609084,-0.7686 0.609084,-2.72637 v -1.35594 h 3.886536 v 4.08231 h 0.7251 v 2.29857 h -1.152909 v -1.26893 h -3.429723 v 1.26893 z m 1.834503,-2.29857 h 1.841754 V 120.6651 H 59.88327 v 0.47132 q 0,0.89187 -0.130518,1.52996 -0.130518,0.63808 -0.384303,1.05139 z"
           style="font-weight:900;font-family:'Nunito Sans';-inkscape-font-specification:'Nunito Sans Heavy'"
           id="path3042" /><path
           d="m 34.984885,131.05943 v -1.31968 h 1.341435 v 1.31968 z"
           style="letter-spacing:0.79375px;display:inline"
           id="path3044"
           sodipodi:nodetypes="ccccc" /><path
           d="m 37.696562,131.08738 v -5.11196 h 3.610999 v 1.02964 h -2.334823 v 0.97164 h 2.168049 v 1.02964 h -2.168049 v 1.0514 h 2.334823 v 1.02964 z"
           style="font-weight:900;font-family:'Nunito Sans';-inkscape-font-specification:'Nunito Sans Heavy'"
           id="path3046" /><path
           d="m 44.823917,131.16714 q -0.848367,0 -1.457451,-0.3263 -0.609084,-0.32629 -0.935379,-0.92087 -0.319044,-0.59459 -0.319044,-1.3922 0,-0.79761 0.319044,-1.38494 0.326295,-0.59458 0.935379,-0.92087 0.609084,-0.3263 1.457451,-0.3263 0.50757,0 0.978885,0.15952 0.471315,0.15227 0.761355,0.40606 l -0.398805,1.05139 q -0.319044,-0.23203 -0.638088,-0.34079 -0.319044,-0.11602 -0.65259,-0.11602 -0.674343,0 -1.01514,0.3843 -0.340797,0.37706 -0.340797,1.08765 0,0.71785 0.340797,1.10216 0.340797,0.37705 1.01514,0.37705 0.333546,0 0.65259,-0.10877 0.319044,-0.11601 0.638088,-0.34804 l 0.398806,1.05139 q -0.29004,0.25379 -0.761356,0.41331 -0.471314,0.15227 -0.978885,0.15227 z"
           style="font-weight:900;font-family:'Nunito Sans';-inkscape-font-specification:'Nunito Sans Heavy'"
           id="path3048" /><path
           d="m 48.434529,131.08738 v -4.02431 h -1.624224 v -1.08765 h 4.582632 v 1.08765 h -1.624224 v 4.02431 z"
           style="font-weight:900;font-family:'Nunito Sans';-inkscape-font-specification:'Nunito Sans Heavy'"
           id="path3050" /><path
           d="m 51.979876,131.08738 v -5.11196 h 1.334184 v 1.98678 h 1.203666 q 0.833865,0 1.312431,0.40605 0.485817,0.40606 0.485817,1.15291 0,0.75411 -0.485817,1.16016 -0.478566,0.40606 -1.312431,0.40606 z m 1.334184,-1.00789 h 1.022391 q 0.369801,0 0.536574,-0.13777 0.174024,-0.13777 0.174024,-0.42056 0,-0.27554 -0.174024,-0.41331 -0.166773,-0.13776 -0.536574,-0.13776 H 53.31406 Z"
           style="font-weight:900;font-family:'Nunito Sans';-inkscape-font-specification:'Nunito Sans Heavy'"
           id="path3052" /><path
           d="m 34.984885,125.94747 v 2.94476 h 1.341435 v -2.94476 z"
           style="letter-spacing:0.79375px;display:inline"
           id="path3054"
           sodipodi:nodetypes="ccccc" /></g><text
         xml:space="preserve"
         style="font-size:33.7188px;line-height:0.83;letter-spacing:0.764695px;display:none;fill:#262626;fill-opacity:1;stroke:none;stroke-width:1.92679;stroke-dasharray:none;stroke-opacity:1"
         x="425.70706"
         y="-206.52426"
         id="text3062"><tspan
           sodipodi:role="line"
           style="font-style:normal;font-variant:normal;font-weight:normal;font-stretch:normal;font-size:33.7188px;font-family:'Nunito Sans';-inkscape-font-specification:'Nunito Sans';fill:#262626;fill-opacity:1;stroke-width:1.92679"
           x="425.70706"
           y="-206.52426"
           id="tspan3058">некоммерческая</tspan><tspan
           sodipodi:role="line"
           style="font-style:normal;font-variant:normal;font-weight:normal;font-stretch:normal;font-size:33.7188px;font-family:'Nunito Sans';-inkscape-font-specification:'Nunito Sans';fill:#262626;fill-opacity:1;stroke-width:1.92679"
           x="425.70706"
           y="-176.98228"
           id="tspan3060">организация</tspan></text><g
         aria-label="некоммерческая
организация"
         id="text359"
         style="font-size:33.7188px;line-height:0.83;letter-spacing:0.764695px;display:inline;fill:#262626;stroke-width:1.92679"><path
           d="m 428.40457,-206.52426 v -16.38734 h 2.73122 v 6.8112 h 8.93548 v -6.8112 h 2.73122 v 16.38734 h -2.73122 v -7.3507 h -8.93548 v 7.3507 z"
           style="font-family:'Nunito Sans';-inkscape-font-specification:'Nunito Sans'"
           id="path361" /><path
           d="m 456.38033,-206.22079 q -3.87766,0 -6.13682,-2.25916 -2.25916,-2.29288 -2.25916,-6.20426 0,-2.52891 1.01156,-4.45088 1.01157,-1.95569 2.76494,-3.00098 1.7871,-1.079 4.1137,-1.079 3.33816,0 5.22641,2.15801 1.88825,2.12428 1.88825,5.86707 v 1.04528 h -12.34108 q 0.13488,2.79866 1.6185,4.28229 1.48363,1.44991 4.1137,1.44991 1.48363,0 2.83238,-0.43835 1.34875,-0.47206 2.56263,-1.51734 l 0.94412,1.92197 q -1.11272,1.04528 -2.83238,1.65222 -1.71966,0.57322 -3.50675,0.57322 z m -0.43835,-14.97115 q -2.32659,0 -3.67535,1.44991 -1.34875,1.44991 -1.58478,3.81022 h 9.94705 q -0.10116,-2.49519 -1.31504,-3.87766 -1.18015,-1.38247 -3.37188,-1.38247 z"
           style="font-family:'Nunito Sans';-inkscape-font-specification:'Nunito Sans'"
           id="path363" /><path
           d="m 468.00247,-206.52426 v -16.38734 h 2.73122 v 6.84492 h 3.06841 l 5.36129,-6.84492 h 3.00098 l -5.69848,7.38442 q 0.87669,0.33719 1.58478,1.11272 0.7081,0.77553 1.58479,2.22544 l 3.37188,5.66476 h -2.93354 l -2.96725,-4.95667 q -0.84297,-1.4499 -1.61851,-1.92197 -0.77553,-0.47206 -2.19172,-0.47206 h -2.56263 v 7.3507 z"
           style="font-family:'Nunito Sans';-inkscape-font-specification:'Nunito Sans'"
           id="path365" /><path
           d="m 493.34821,-206.22079 q -2.39404,0 -4.14742,-1.04529 -1.75337,-1.04528 -2.73122,-2.93353 -0.94413,-1.92197 -0.94413,-4.51832 0,-2.59635 0.94413,-4.4846 0.97785,-1.92197 2.73122,-2.96725 1.75338,-1.04529 4.14742,-1.04529 2.36031,0 4.11369,1.04529 1.7871,1.04528 2.73122,2.96725 0.97785,1.88825 0.97785,4.4846 0,2.59635 -0.97785,4.51832 -0.94412,1.88825 -2.73122,2.93353 -1.75338,1.04529 -4.11369,1.04529 z m 0,-2.19172 q 2.29287,0 3.67535,-1.61851 1.38247,-1.65222 1.38247,-4.68691 0,-3.06841 -1.38247,-4.68691 -1.38248,-1.61851 -3.67535,-1.61851 -2.3266,0 -3.70907,1.61851 -1.34875,1.6185 -1.34875,4.68691 0,3.03469 1.34875,4.68691 1.38247,1.61851 3.70907,1.61851 z"
           style="font-family:'Nunito Sans';-inkscape-font-specification:'Nunito Sans'"
           id="path367" /><path
           d="m 506.35282,-206.52426 v -16.38734 h 2.25916 l 6.17054,10.95861 6.17054,-10.95861 h 2.22544 v 16.38734 h -2.42775 v -11.93646 l -5.29385,9.30639 h -1.38247 l -5.29385,-9.30639 v 11.93646 z"
           style="font-family:'Nunito Sans';-inkscape-font-specification:'Nunito Sans'"
           id="path369" /><path
           d="m 529.33822,-206.52426 v -16.38734 h 2.25916 l 6.17054,10.95861 6.17054,-10.95861 h 2.22544 v 16.38734 h -2.42775 v -11.93646 l -5.29385,9.30639 h -1.38247 l -5.29386,-9.30639 v 11.93646 z"
           style="font-family:'Nunito Sans';-inkscape-font-specification:'Nunito Sans'"
           id="path371" /><path
           d="m 559.74175,-206.22079 q -3.87766,0 -6.13682,-2.25916 -2.25916,-2.29288 -2.25916,-6.20426 0,-2.52891 1.01157,-4.45088 1.01156,-1.95569 2.76494,-3.00098 1.78709,-1.079 4.11369,-1.079 3.33816,0 5.22642,2.15801 1.88825,2.12428 1.88825,5.86707 v 1.04528 h -12.34108 q 0.13487,2.79866 1.6185,4.28229 1.48363,1.44991 4.11369,1.44991 1.48363,0 2.83238,-0.43835 1.34875,-0.47206 2.56263,-1.51734 l 0.94413,1.92197 q -1.11272,1.04528 -2.83238,1.65222 -1.71966,0.57322 -3.50676,0.57322 z m -0.43834,-14.97115 q -2.3266,0 -3.67535,1.44991 -1.34875,1.44991 -1.58478,3.81022 h 9.94704 q -0.10115,-2.49519 -1.31503,-3.87766 -1.18016,-1.38247 -3.37188,-1.38247 z"
           style="font-family:'Nunito Sans';-inkscape-font-specification:'Nunito Sans'"
           id="path373" /><path
           d="m 571.39762,-200.45488 v -22.45672 h 2.66379 v 2.93354 q 0.74181,-1.51735 2.19172,-2.36032 1.48362,-0.87669 3.43931,-0.87669 2.19173,0 3.81023,1.04529 1.65222,1.01156 2.52891,2.93353 0.91041,1.88825 0.91041,4.51832 0,2.59635 -0.91041,4.51832 -0.87669,1.88825 -2.52891,2.93353 -1.6185,1.04529 -3.81023,1.04529 -1.88825,0 -3.37188,-0.84297 -1.48362,-0.84297 -2.19172,-2.3266 v 8.93548 z m 7.7216,-7.95763 q 2.29288,0 3.67535,-1.61851 1.38247,-1.65222 1.38247,-4.68691 0,-3.06841 -1.38247,-4.68691 -1.38247,-1.61851 -3.67535,-1.61851 -2.29287,0 -3.67534,1.61851 -1.38247,1.6185 -1.38247,4.68691 0,3.03469 1.38247,4.68691 1.38247,1.61851 3.67534,1.61851 z"
           style="font-family:'Nunito Sans';-inkscape-font-specification:'Nunito Sans'"
           id="path375" /><path
           d="m 602.64412,-206.52426 v -6.6426 q -1.88826,1.14643 -4.34973,1.14643 -3.50676,0 -5.1927,-1.65222 -1.68593,-1.68594 -1.68593,-5.09154 v -4.14741 h 2.73122 v 3.9451 q 0,2.42776 1.04528,3.54048 1.079,1.11272 3.43932,1.11272 1.21387,0 2.12428,-0.26975 0.94413,-0.26975 1.85454,-0.87669 v -7.45186 h 2.73122 v 16.38734 z"
           style="font-family:'Nunito Sans';-inkscape-font-specification:'Nunito Sans'"
           id="path377" /><path
           d="m 618.91947,-206.22079 q -3.87766,0 -6.13682,-2.25916 -2.25916,-2.29288 -2.25916,-6.20426 0,-2.52891 1.01157,-4.45088 1.01156,-1.95569 2.76494,-3.00098 1.78709,-1.079 4.11369,-1.079 3.33816,0 5.22641,2.15801 1.88826,2.12428 1.88826,5.86707 v 1.04528 h -12.34108 q 0.13487,2.79866 1.6185,4.28229 1.48363,1.44991 4.11369,1.44991 1.48363,0 2.83238,-0.43835 1.34875,-0.47206 2.56263,-1.51734 l 0.94413,1.92197 q -1.11272,1.04528 -2.83238,1.65222 -1.71966,0.57322 -3.50676,0.57322 z m -0.43834,-14.97115 q -2.3266,0 -3.67535,1.44991 -1.34875,1.44991 -1.58478,3.81022 h 9.94704 q -0.10115,-2.49519 -1.31503,-3.87766 -1.18016,-1.38247 -3.37188,-1.38247 z"
           style="font-family:'Nunito Sans';-inkscape-font-specification:'Nunito Sans'"
           id="path379" /><path
           d="m 637.5214,-206.22079 q -2.46148,0 -4.24857,-1.04529 -1.7871,-1.079 -2.76494,-3.00097 -0.94413,-1.95569 -0.94413,-4.55204 0,-3.91138 2.12428,-6.13682 2.12429,-2.25916 5.83336,-2.25916 1.51734,0 3.00097,0.5395 1.48363,0.5395 2.46147,1.51735 l -0.94412,1.98941 q -0.97785,-0.94413 -2.15801,-1.38247 -1.14644,-0.43835 -2.19172,-0.43835 -2.56263,0 -3.9451,1.61851 -1.38247,1.58478 -1.38247,4.58575 0,2.93354 1.38247,4.6532 1.38247,1.68594 3.9451,1.68594 1.04528,0 2.19172,-0.43835 1.18016,-0.43834 2.15801,-1.41619 l 0.94412,1.98941 q -0.97784,0.97785 -2.49519,1.55107 -1.48363,0.5395 -2.96725,0.5395 z"
           style="font-family:'Nunito Sans';-inkscape-font-specification:'Nunito Sans'"
           id="path381" /><path
           d="m 647.25527,-206.52426 v -16.38734 h 2.73123 v 6.84492 h 3.06841 l 5.36129,-6.84492 h 3.00097 l -5.69848,7.38442 q 0.87669,0.33719 1.58479,1.11272 0.70809,0.77553 1.58478,2.22544 l 3.37188,5.66476 h -2.93354 l -2.96725,-4.95667 q -0.84297,-1.4499 -1.6185,-1.92197 -0.77554,-0.47206 -2.19172,-0.47206 h -2.56263 v 7.3507 z"
           style="font-family:'Nunito Sans';-inkscape-font-specification:'Nunito Sans'"
           id="path383" /><path
           d="m 670.94879,-206.22079 q -1.68594,0 -3.03469,-0.64066 -1.31503,-0.67438 -2.09056,-1.82081 -0.77554,-1.14644 -0.77554,-2.56263 0,-1.7871 0.91041,-2.83238 0.94413,-1.04529 3.06841,-1.48363 2.158,-0.47206 5.86707,-0.47206 h 1.079 v -1.04529 q 0,-2.09056 -0.87668,-3.00097 -0.84297,-0.94413 -2.73123,-0.94413 -1.48362,0 -2.8661,0.43835 -1.38247,0.40462 -2.83237,1.34875 l -0.94413,-1.98941 q 1.28131,-0.91041 3.10213,-1.44991 1.85453,-0.5395 3.54047,-0.5395 3.16957,0 4.68692,1.55107 1.55106,1.55106 1.55106,4.82179 v 10.31795 h -2.56263 v -2.83238 q -0.64066,1.44991 -1.98941,2.29288 -1.31503,0.84297 -3.10213,0.84297 z m 0.43835,-2.05685 q 2.02313,0 3.30444,-1.38247 1.28131,-1.41619 1.28131,-3.57419 v -1.01157 h -1.04528 q -2.73122,0 -4.31601,0.26975 -1.55106,0.23604 -2.19172,0.87669 -0.60694,0.60694 -0.60694,1.68594 0,1.38247 0.94413,2.25916 0.97785,0.87669 2.63007,0.87669 z"
           style="font-family:'Nunito Sans';-inkscape-font-specification:'Nunito Sans'"
           id="path385" /><path
           d="m 683.34646,-206.52426 2.52891,-4.38345 q 1.01157,-1.78709 2.59635,-2.32659 -2.09056,-0.30347 -3.237,-1.51735 -1.14644,-1.24759 -1.14644,-3.237 0,-2.25916 1.48362,-3.5742 1.51735,-1.34875 4.51832,-1.34875 h 7.38442 v 16.38734 h -2.59635 v -6.23798 h -2.39403 q -1.34875,0 -2.29288,0.67438 -0.91041,0.67437 -1.48363,1.65222 l -2.22544,3.91138 z m 7.24955,-8.22739 h 4.28228 v -6.23798 h -4.28228 q -1.98941,0 -2.93354,0.84297 -0.94413,0.80925 -0.94413,2.25916 0,1.48363 0.94413,2.3266 0.94413,0.80925 2.93354,0.80925 z"
           style="font-family:'Nunito Sans';-inkscape-font-specification:'Nunito Sans'"
           id="path387" /><path
           d="m 435.24948,-176.67881 q -2.39403,0 -4.14741,-1.04528 -1.75338,-1.04528 -2.73122,-2.93354 -0.94413,-1.92197 -0.94413,-4.51832 0,-2.59634 0.94413,-4.4846 0.97784,-1.92197 2.73122,-2.96725 1.75338,-1.04528 4.14741,-1.04528 2.36032,0 4.1137,1.04528 1.78709,1.04528 2.73122,2.96725 0.97784,1.88826 0.97784,4.4846 0,2.59635 -0.97784,4.51832 -0.94413,1.88826 -2.73122,2.93354 -1.75338,1.04528 -4.1137,1.04528 z m 0,-2.19172 q 2.29288,0 3.67535,-1.6185 1.38247,-1.65222 1.38247,-4.68692 0,-3.06841 -1.38247,-4.68691 -1.38247,-1.6185 -3.67535,-1.6185 -2.3266,0 -3.70907,1.6185 -1.34875,1.6185 -1.34875,4.68691 0,3.0347 1.34875,4.68692 1.38247,1.6185 3.70907,1.6185 z"
           style="font-family:'Nunito Sans';-inkscape-font-specification:'Nunito Sans'"
           id="path389" /><path
           d="m 448.28782,-170.91289 v -22.45673 h 2.66378 v 2.93354 q 0.74182,-1.51735 2.19173,-2.36032 1.48362,-0.87668 3.43931,-0.87668 2.19173,0 3.81023,1.04528 1.65222,1.01156 2.52891,2.93353 0.91041,1.88826 0.91041,4.51832 0,2.59635 -0.91041,4.51832 -0.87669,1.88826 -2.52891,2.93354 -1.6185,1.04528 -3.81023,1.04528 -1.88825,0 -3.37188,-0.84297 -1.48362,-0.84297 -2.19172,-2.3266 v 8.93549 z m 7.7216,-7.95764 q 2.29288,0 3.67535,-1.6185 1.38247,-1.65222 1.38247,-4.68692 0,-3.06841 -1.38247,-4.68691 -1.38247,-1.6185 -3.67535,-1.6185 -2.29287,0 -3.67534,1.6185 -1.38248,1.6185 -1.38248,4.68691 0,3.0347 1.38248,4.68692 1.38247,1.6185 3.67534,1.6185 z"
           style="font-family:'Nunito Sans';-inkscape-font-specification:'Nunito Sans'"
           id="path391" /><path
           d="m 469.01406,-176.98228 v -16.38734 h 11.49811 v 2.19173 h -8.76689 v 14.19561 z"
           style="font-family:'Nunito Sans';-inkscape-font-specification:'Nunito Sans'"
           id="path393" /><path
           d="m 489.63911,-176.67881 q -1.68594,0 -3.03469,-0.64066 -1.31504,-0.67437 -2.09057,-1.82081 -0.77553,-1.14644 -0.77553,-2.56263 0,-1.7871 0.91041,-2.83238 0.94412,-1.04528 3.06841,-1.48363 2.158,-0.47206 5.86707,-0.47206 h 1.079 v -1.04528 q 0,-2.09057 -0.87669,-3.00098 -0.84297,-0.94412 -2.73122,-0.94412 -1.48363,0 -2.8661,0.43834 -1.38247,0.40463 -2.83238,1.34875 l -0.94413,-1.98941 q 1.28132,-0.9104 3.10213,-1.4499 1.85454,-0.5395 3.54048,-0.5395 3.16956,0 4.68691,1.55106 1.55107,1.55107 1.55107,4.82179 v 10.31795 h -2.56263 v -2.83238 q -0.64066,1.44991 -1.98941,2.29288 -1.31504,0.84297 -3.10213,0.84297 z m 0.43834,-2.05685 q 2.02313,0 3.30444,-1.38247 1.28132,-1.41619 1.28132,-3.57419 v -1.01156 h -1.04528 q -2.73123,0 -4.31601,0.26975 -1.55106,0.23603 -2.19172,0.87669 -0.60694,0.60693 -0.60694,1.68594 0,1.38247 0.94413,2.25916 0.97784,0.87668 2.63006,0.87668 z"
           style="font-family:'Nunito Sans';-inkscape-font-specification:'Nunito Sans'"
           id="path395" /><path
           d="m 503.38552,-176.98228 v -16.38734 h 2.73123 v 6.8112 h 8.93548 v -6.8112 h 2.73122 v 16.38734 h -2.73122 v -7.3507 h -8.93548 v 7.3507 z"
           style="font-family:'Nunito Sans';-inkscape-font-specification:'Nunito Sans'"
           id="path397" /><path
           d="m 523.94316,-176.98228 v -16.38734 h 2.49519 v 12.67827 l 9.47498,-12.67827 h 2.3266 v 16.38734 h -2.49519 v -12.67827 l -9.47499,12.67827 z"
           style="font-family:'Nunito Sans';-inkscape-font-specification:'Nunito Sans'"
           id="path399" /><path
           d="m 549.82834,-176.67881 q -2.12428,0 -4.01254,-0.5395 -1.85453,-0.57322 -3.00097,-1.58478 l 0.87669,-1.92198 q 1.18016,0.94413 2.76494,1.44991 1.58478,0.47207 3.30444,0.47207 2.42776,0 3.47304,-0.7081 1.079,-0.70809 1.079,-2.09056 0,-2.66379 -3.4056,-2.66379 h -3.87766 v -2.05685 h 3.54047 q 1.44991,0 2.29288,-0.67437 0.87669,-0.67438 0.87669,-1.88825 0,-1.21388 -0.94412,-1.92198 -0.94413,-0.74181 -3.0347,-0.74181 -3.27072,0 -5.79963,1.7871 l -0.87669,-1.92198 q 2.76494,-1.9894 7.01351,-1.9894 3.13585,0 4.68691,1.21387 1.55107,1.21388 1.55107,3.4056 0,1.2476 -0.74181,2.22544 -0.7081,0.94413 -1.95569,1.38247 1.51734,0.37091 2.39403,1.41619 0.87669,1.01157 0.87669,2.52891 0,2.19172 -1.7871,3.50676 -1.78709,1.31503 -5.29385,1.31503 z"
           style="font-family:'Nunito Sans';-inkscape-font-specification:'Nunito Sans'"
           id="path401" /><path
           d="m 567.11524,-176.67881 q -1.68594,0 -3.0347,-0.64066 -1.31503,-0.67437 -2.09056,-1.82081 -0.77553,-1.14644 -0.77553,-2.56263 0,-1.7871 0.9104,-2.83238 0.94413,-1.04528 3.06841,-1.48363 2.15801,-0.47206 5.86708,-0.47206 h 1.079 v -1.04528 q 0,-2.09057 -0.87669,-3.00098 -0.84297,-0.94412 -2.73122,-0.94412 -1.48363,0 -2.8661,0.43834 -1.38247,0.40463 -2.83238,1.34875 l -0.94413,-1.98941 q 1.28132,-0.9104 3.10213,-1.4499 1.85454,-0.5395 3.54048,-0.5395 3.16956,0 4.68691,1.55106 1.55106,1.55107 1.55106,4.82179 v 10.31795 h -2.56263 v -2.83238 q -0.64065,1.44991 -1.9894,2.29288 -1.31504,0.84297 -3.10213,0.84297 z m 0.43834,-2.05685 q 2.02313,0 3.30444,-1.38247 1.28132,-1.41619 1.28132,-3.57419 v -1.01156 h -1.04529 q -2.73122,0 -4.316,0.26975 -1.55107,0.23603 -2.19172,0.87669 -0.60694,0.60693 -0.60694,1.68594 0,1.38247 0.94412,2.25916 0.97785,0.87668 2.63007,0.87668 z"
           style="font-family:'Nunito Sans';-inkscape-font-specification:'Nunito Sans'"
           id="path403" /><path
           d="m 595.02355,-172.59883 v -4.38345 h -14.16189 v -16.38734 h 2.73122 v 14.19562 h 8.46342 v -14.19562 h 2.73122 v 14.19562 h 2.59635 v 6.57517 z"
           style="font-family:'Nunito Sans';-inkscape-font-specification:'Nunito Sans'"
           id="path405" /><path
           d="m 601.79019,-176.98228 v -16.38734 h 2.49519 v 12.67827 l 9.47498,-12.67827 h 2.3266 v 16.38734 h -2.49519 v -12.67827 l -9.47499,12.67827 z"
           style="font-family:'Nunito Sans';-inkscape-font-specification:'Nunito Sans'"
           id="path407" /><path
           d="m 620.89789,-176.98228 2.52891,-4.38344 q 1.01156,-1.7871 2.59634,-2.3266 -2.09056,-0.30347 -3.237,-1.51735 -1.14644,-1.24759 -1.14644,-3.237 0,-2.25916 1.48363,-3.57419 1.51734,-1.34876 4.51832,-1.34876 h 7.38441 v 16.38734 h -2.59635 v -6.23798 h -2.39403 q -1.34875,0 -2.29288,0.67438 -0.91041,0.67438 -1.48363,1.65222 l -2.22544,3.91138 z m 7.24954,-8.22739 h 4.28228 v -6.23797 h -4.28228 q -1.98941,0 -2.93354,0.84297 -0.94412,0.80925 -0.94412,2.25916 0,1.48362 0.94412,2.32659 0.94413,0.80925 2.93354,0.80925 z"
           style="font-family:'Nunito Sans';-inkscape-font-specification:'Nunito Sans'"
           id="path409" /></g></g><g
       inkscape:groupmode="layer"
       id="g5832"
       inkscape:label="Arrow copy 2"
       style="display:none"
       transform="matrix(1.0046433,0,0,1.0046433,118.93572,-104.39297)"><path
         id="path5822"
         style="fill:#333333;fill-opacity:1;stroke-width:0.381454"
         d="m 61.784035,122.42559 v 58.50342 H 3.280606 Z"
         sodipodi:nodetypes="cccc" /><rect
         style="fill:#333333;fill-opacity:1;stroke:none;stroke-width:0.298491;stroke-dasharray:none;stroke-opacity:1"
         id="rect5824"
         width="45.779194"
         height="45.779209"
         x="9.6427231"
         y="128.78769" /><path
         id="path5826"
         style="fill:#ffffff;fill-opacity:1;stroke-width:0.29849"
         d="M 55.421921,128.78769 V 174.5669 H 9.6427226 Z"
         sodipodi:nodetypes="cccc" /><path
         id="path5828"
         style="fill:#ffffff;fill-opacity:1;stroke-width:0.14288"
         d="M 3.280606,166.25162 V 144.33859 H 25.193612 Z"
         sodipodi:nodetypes="cccc" /><path
         id="path5830"
         style="fill:#333333;fill-opacity:1;stroke-width:0.14288"
         d="M 39.871003,159.01599 V 180.929 H 17.958031 Z"
         sodipodi:nodetypes="cccc" /><rect
         style="fill:#000000;fill-opacity:0;stroke:#333333;stroke-width:1.24194;stroke-dasharray:none;stroke-opacity:1"
         id="rect5820"
         width="58.503445"
         height="58.503441"
         x="3.2805917"
         y="122.42557" /></g></g></svg>
