<?xml version="1.0" encoding="UTF-8" standalone="no"?>
<!-- Created with Inkscape (http://www.inkscape.org/) -->

<svg
   width="220"
   height="90"
   viewBox="0 0 58.208332 23.812501"
   version="1.1"
   id="svg1530"
   inkscape:version="1.1.1 (3bf5ae0d25, 2021-09-20)"
   sodipodi:docname="ne-menu-logo.svg"
   xmlns:inkscape="http://www.inkscape.org/namespaces/inkscape"
   xmlns:sodipodi="http://sodipodi.sourceforge.net/DTD/sodipodi-0.dtd"
   xmlns="http://www.w3.org/2000/svg"
   xmlns:svg="http://www.w3.org/2000/svg">
  <sodipodi:namedview
     id="namedview1532"
     pagecolor="#ffffff"
     bordercolor="#666666"
     borderopacity="1.0"
     inkscape:pageshadow="2"
     inkscape:pageopacity="0"
     inkscape:pagecheckerboard="true"
     inkscape:document-units="mm"
     showgrid="false"
     units="px"
     inkscape:zoom="2.9362514"
     inkscape:cx="28.77819"
     inkscape:cy="74.074039"
     inkscape:window-width="1920"
     inkscape:window-height="1009"
     inkscape:window-x="-8"
     inkscape:window-y="-8"
     inkscape:window-maximized="1"
     inkscape:current-layer="layer1" />
  <defs
     id="defs1527" />
  <g
     inkscape:label="Layer 1"
     inkscape:groupmode="layer"
     id="layer1">
    <g
       id="g3064"
       inkscape:label="logo"
       style="display:inline"
       transform="matrix(0.09422074,0,0,0.09422074,-23.367882,25.891757)">
      <rect
         style="display:inline;fill:#7bcc03;fill-opacity:1;stroke:none;stroke-width:1.0918;stroke-dasharray:none;stroke-opacity:1"
         id="rect3022"
         width="167.44963"
         height="167.44966"
         x="248.01208"
         y="-223.21507" />
      <path
         id="path3024"
         style="display:inline;fill:#eef10a;fill-opacity:1;stroke-width:1.0918"
         d="M 415.46173,-223.215 V -55.765371 H 248.01213 Z"
         sodipodi:nodetypes="cccc" />
      <rect
         style="display:inline;fill:#eef10a;fill-opacity:1;stroke:none;stroke-width:0.854347;stroke-dasharray:none;stroke-opacity:1"
         id="rect3026"
         width="131.03006"
         height="131.03014"
         x="266.22189"
         y="-205.00528" />
      <path
         id="path3028"
         style="display:inline;fill:#7bcc03;fill-opacity:1;stroke-width:0.854343"
         d="M 397.25197,-205.00527 V -73.975141 H 266.2219 Z"
         sodipodi:nodetypes="cccc" />
      <path
         id="path3030"
         style="display:inline;fill:#7bcc03;fill-opacity:1;stroke-width:0.408952"
         d="m 248.01213,-97.775271 v -62.719899 h 62.71981 z"
         sodipodi:nodetypes="cccc" />
      <path
         id="path3032"
         style="display:inline;fill:#eef10a;fill-opacity:1;stroke-width:0.408952"
         d="m 352.74184,-118.48523 v 62.719819 h -62.71971 z"
         sodipodi:nodetypes="cccc" />
      <g
         aria-label="ВЫХОД !ЕСТЬ"
         id="g3056"
         style="font-size:7.251px;line-height:0.83;letter-spacing:0.079375px;display:inline;fill:#333333;stroke-width:0.2"
         transform="matrix(9.633956,0,0,9.633956,90.383885,-1318.3862)">
        <path
           d="m 34.984885,124.74741 v -5.11195 h 2.46534 q 0.826614,0 1.276176,0.36255 0.456813,0.3553 0.456813,0.95713 0,0.39881 -0.203028,0.6961 -0.195777,0.29729 -0.551076,0.44231 0.427809,0.13052 0.659841,0.44231 0.232032,0.30454 0.232032,0.76135 0,0.67435 -0.485817,1.0659 -0.478566,0.3843 -1.312431,0.3843 z m 1.276176,-3.08167 h 0.949881 q 0.36255,0 0.529323,-0.13052 0.174024,-0.13052 0.174024,-0.3988 0,-0.26829 -0.174024,-0.39156 -0.166773,-0.13052 -0.529323,-0.13052 h -0.949881 z m 0,2.10279 h 1.080399 q 0.369801,0 0.536574,-0.13777 0.174024,-0.14502 0.174024,-0.42781 0,-0.28279 -0.174024,-0.42056 -0.166773,-0.13777 -0.536574,-0.13777 h -1.080399 z"
           style="font-weight:900;font-family:'Nunito Sans';-inkscape-font-specification:'Nunito Sans Heavy'"
           id="path3034" />
        <path
           d="m 40.154459,124.74741 v -5.11195 h 1.334184 v 1.98677 h 0.986136 q 0.833865,0 1.312431,0.40606 0.485817,0.40605 0.485817,1.15291 0,0.7541 -0.485817,1.16016 -0.478566,0.40605 -1.312431,0.40605 z m 4.676895,0 v -5.11195 h 1.326933 v 5.11195 z m -3.342711,-1.00789 h 0.804861 q 0.369801,0 0.536574,-0.13776 0.174024,-0.13777 0.174024,-0.42056 0,-0.27554 -0.174024,-0.41331 -0.166773,-0.13777 -0.536574,-0.13777 h -0.804861 z"
           style="font-weight:900;font-family:'Nunito Sans';-inkscape-font-specification:'Nunito Sans Heavy'"
           id="path3036" />
        <path
           d="m 46.527707,124.74741 1.95777,-2.58135 -1.914264,-2.5306 h 1.544463 l 1.123905,1.56621 1.123905,-1.56621 H 51.9152 l -1.914264,2.5306 1.950519,2.58135 h -1.551714 l -1.16016,-1.60972 -1.16016,1.60972 z"
           style="font-weight:900;font-family:'Nunito Sans';-inkscape-font-specification:'Nunito Sans Heavy'"
           id="path3038" />
        <path
           d="m 54.597687,124.82717 q -0.775857,0 -1.363188,-0.32629 -0.58008,-0.33355 -0.906375,-0.92813 -0.326295,-0.59458 -0.326295,-1.38494 0,-0.79761 0.319044,-1.38494 0.326295,-0.59458 0.913626,-0.92088 0.587331,-0.32629 1.363188,-0.32629 0.775857,0 1.355937,0.32629 0.587331,0.3263 0.913626,0.92088 0.326295,0.58733 0.326295,1.38494 0,0.79036 -0.326295,1.38494 -0.326295,0.59458 -0.913626,0.92813 -0.58008,0.32629 -1.355937,0.32629 z m 0,-1.11665 q 0.565578,0 0.884622,-0.3988 0.326295,-0.40606 0.326295,-1.12391 0,-0.71785 -0.319044,-1.11665 -0.319044,-0.39881 -0.891873,-0.39881 -0.572829,0 -0.891873,0.39881 -0.319044,0.3988 -0.319044,1.11665 0,0.71785 0.319044,1.12391 0.319044,0.3988 0.891873,0.3988 z"
           style="font-weight:900;font-family:'Nunito Sans';-inkscape-font-specification:'Nunito Sans Heavy'"
           id="path3040" />
        <path
           d="m 57.533946,126.01634 v -2.29857 h 0.514821 q 0.609084,-0.7686 0.609084,-2.72637 v -1.35594 h 3.886536 v 4.08231 h 0.7251 v 2.29857 h -1.152909 v -1.26893 h -3.429723 v 1.26893 z m 1.834503,-2.29857 h 1.841754 V 120.6651 H 59.88327 v 0.47132 q 0,0.89187 -0.130518,1.52996 -0.130518,0.63808 -0.384303,1.05139 z"
           style="font-weight:900;font-family:'Nunito Sans';-inkscape-font-specification:'Nunito Sans Heavy'"
           id="path3042" />
        <path
           d="m 34.984885,131.05943 v -1.31968 h 1.341435 v 1.31968 z"
           style="letter-spacing:0.79375px;display:inline"
           id="path3044"
           sodipodi:nodetypes="ccccc" />
        <path
           d="m 37.696562,131.08738 v -5.11196 h 3.610999 v 1.02964 h -2.334823 v 0.97164 h 2.168049 v 1.02964 h -2.168049 v 1.0514 h 2.334823 v 1.02964 z"
           style="font-weight:900;font-family:'Nunito Sans';-inkscape-font-specification:'Nunito Sans Heavy'"
           id="path3046" />
        <path
           d="m 44.823917,131.16714 q -0.848367,0 -1.457451,-0.3263 -0.609084,-0.32629 -0.935379,-0.92087 -0.319044,-0.59459 -0.319044,-1.3922 0,-0.79761 0.319044,-1.38494 0.326295,-0.59458 0.935379,-0.92087 0.609084,-0.3263 1.457451,-0.3263 0.50757,0 0.978885,0.15952 0.471315,0.15227 0.761355,0.40606 l -0.398805,1.05139 q -0.319044,-0.23203 -0.638088,-0.34079 -0.319044,-0.11602 -0.65259,-0.11602 -0.674343,0 -1.01514,0.3843 -0.340797,0.37706 -0.340797,1.08765 0,0.71785 0.340797,1.10216 0.340797,0.37705 1.01514,0.37705 0.333546,0 0.65259,-0.10877 0.319044,-0.11601 0.638088,-0.34804 l 0.398806,1.05139 q -0.29004,0.25379 -0.761356,0.41331 -0.471314,0.15227 -0.978885,0.15227 z"
           style="font-weight:900;font-family:'Nunito Sans';-inkscape-font-specification:'Nunito Sans Heavy'"
           id="path3048" />
        <path
           d="m 48.434529,131.08738 v -4.02431 h -1.624224 v -1.08765 h 4.582632 v 1.08765 h -1.624224 v 4.02431 z"
           style="font-weight:900;font-family:'Nunito Sans';-inkscape-font-specification:'Nunito Sans Heavy'"
           id="path3050" />
        <path
           d="m 51.979876,131.08738 v -5.11196 h 1.334184 v 1.98678 h 1.203666 q 0.833865,0 1.312431,0.40605 0.485817,0.40606 0.485817,1.15291 0,0.75411 -0.485817,1.16016 -0.478566,0.40606 -1.312431,0.40606 z m 1.334184,-1.00789 h 1.022391 q 0.369801,0 0.536574,-0.13777 0.174024,-0.13777 0.174024,-0.42056 0,-0.27554 -0.174024,-0.41331 -0.166773,-0.13776 -0.536574,-0.13776 H 53.31406 Z"
           style="font-weight:900;font-family:'Nunito Sans';-inkscape-font-specification:'Nunito Sans Heavy'"
           id="path3052" />
        <path
           d="m 34.984885,125.94747 v 2.94476 h 1.341435 v -2.94476 z"
           style="letter-spacing:0.79375px;display:inline"
           id="path3054"
           sodipodi:nodetypes="ccccc" />
      </g>
      <text
         xml:space="preserve"
         style="font-size:33.7188px;line-height:0.83;letter-spacing:0.764695px;display:inline;fill:#262626;fill-opacity:1;stroke:none;stroke-width:1.92679;stroke-dasharray:none;stroke-opacity:1"
         x="425.70706"
         y="-206.52426"
         id="text3062"><tspan
           sodipodi:role="line"
           style="font-style:normal;font-variant:normal;font-weight:normal;font-stretch:normal;font-size:33.7188px;font-family:'Nunito Sans';-inkscape-font-specification:'Nunito Sans';fill:#262626;fill-opacity:1;stroke-width:1.92679"
           x="425.70706"
           y="-206.52426"
           id="tspan3058">некоммерческая</tspan><tspan
           sodipodi:role="line"
           style="font-style:normal;font-variant:normal;font-weight:normal;font-stretch:normal;font-size:33.7188px;font-family:'Nunito Sans';-inkscape-font-specification:'Nunito Sans';fill:#262626;fill-opacity:1;stroke-width:1.92679"
           x="425.70706"
           y="-176.98228"
           id="tspan3060">организация</tspan></text>
    </g>
  </g>
</svg>
