<?xml version="1.0" encoding="UTF-8" standalone="no"?>
<!-- Created with Inkscape (http://www.inkscape.org/) -->

<svg
   width="170"
   height="72"
   viewBox="0 0 170 72"
   version="1.1"
   id="svg5"
   inkscape:version="1.2.1 (9c6d41e410, 2022-07-14)"
   sodipodi:docname="szs-logo.svg"
   xml:space="preserve"
   xmlns:inkscape="http://www.inkscape.org/namespaces/inkscape"
   xmlns:sodipodi="http://sodipodi.sourceforge.net/DTD/sodipodi-0.dtd"
   xmlns="http://www.w3.org/2000/svg"
   xmlns:svg="http://www.w3.org/2000/svg"><sodipodi:namedview
     id="namedview7"
     pagecolor="#ffffff"
     bordercolor="#000000"
     borderopacity="0.25"
     inkscape:showpageshadow="2"
     inkscape:pageopacity="0.0"
     inkscape:pagecheckerboard="0"
     inkscape:deskcolor="#d1d1d1"
     inkscape:document-units="px"
     showgrid="false"
     inkscape:zoom="2.8284271"
     inkscape:cx="111.01577"
     inkscape:cy="-3.5355339"
     inkscape:window-width="1366"
     inkscape:window-height="705"
     inkscape:window-x="-8"
     inkscape:window-y="-8"
     inkscape:window-maximized="1"
     inkscape:current-layer="g3064" /><defs
     id="defs2" /><g
     inkscape:label="Layer 1"
     inkscape:groupmode="layer"
     id="layer1"
     transform="translate(-122.00002,-12)"><g
       id="g2919"
       inkscape:label="grid"
       style="display:none"><rect
         style="fill:#7bcc03;fill-opacity:0.3;stroke-width:1.05417"
         id="rect234"
         width="60"
         height="768"
         x="42.000023"
         y="0" /><rect
         style="fill:#eef10a;fill-opacity:0.3;stroke-width:0.608625"
         id="rect234-1"
         width="20"
         height="768"
         x="102.00002"
         y="0" /><rect
         style="fill:#7bcc03;fill-opacity:0.3;stroke-width:1.05417"
         id="rect234-2"
         width="60"
         height="768"
         x="122.00002"
         y="0" /><rect
         style="fill:#eef10a;fill-opacity:0.3;stroke-width:0.608625"
         id="rect234-1-7"
         width="20"
         height="768"
         x="182.00002"
         y="0" /><rect
         style="fill:#7bcc03;fill-opacity:0.3;stroke-width:1.05417"
         id="rect234-4"
         width="60"
         height="768"
         x="202.00002"
         y="0" /><rect
         style="fill:#eef10a;fill-opacity:0.3;stroke-width:0.608625"
         id="rect234-1-3"
         width="20"
         height="768"
         x="262"
         y="0" /><rect
         style="fill:#7bcc03;fill-opacity:0.3;stroke-width:1.05417"
         id="rect234-2-9"
         width="60"
         height="768"
         x="282"
         y="0" /><rect
         style="fill:#eef10a;fill-opacity:0.3;stroke-width:0.608625"
         id="rect234-1-7-3"
         width="20"
         height="768"
         x="342"
         y="0" /><rect
         style="fill:#7bcc03;fill-opacity:0.3;stroke-width:1.05417"
         id="rect234-5"
         width="60"
         height="768"
         x="362"
         y="0" /><rect
         style="fill:#eef10a;fill-opacity:0.3;stroke-width:0.608625"
         id="rect234-1-8"
         width="20"
         height="768"
         x="422"
         y="0" /><rect
         style="fill:#7bcc03;fill-opacity:0.3;stroke-width:1.05417"
         id="rect234-2-4"
         width="60"
         height="768"
         x="442"
         y="0" /><rect
         style="fill:#eef10a;fill-opacity:0.3;stroke-width:0.608625"
         id="rect234-1-7-9"
         width="20"
         height="768"
         x="502"
         y="0" /><rect
         style="fill:#000000;fill-opacity:0.3;stroke-width:0.993879"
         id="rect234-1-7-9-9"
         width="1024"
         height="40"
         x="0"
         y="-40" /><rect
         style="fill:#000000;fill-opacity:0.1;stroke-width:1.49082"
         id="rect234-1-7-9-9-8"
         width="1024"
         height="90"
         x="0"
         y="0" /><rect
         style="fill:#7bcc03;fill-opacity:0.3;stroke-width:1.05417"
         id="rect234-4-3"
         width="60"
         height="768"
         x="522"
         y="0" /><rect
         style="fill:#eef10a;fill-opacity:0.3;stroke-width:0.608625"
         id="rect234-1-3-4"
         width="20"
         height="768"
         x="582"
         y="0" /><rect
         style="fill:#7bcc03;fill-opacity:0.3;stroke-width:1.05417"
         id="rect234-2-9-8"
         width="60"
         height="768"
         x="602"
         y="0" /><rect
         style="fill:#eef10a;fill-opacity:0.3;stroke-width:0.608625"
         id="rect234-1-7-3-8"
         width="20"
         height="768"
         x="662"
         y="0" /><rect
         style="fill:#7bcc03;fill-opacity:0.3;stroke-width:1.05417"
         id="rect234-15"
         width="60"
         height="768"
         x="682"
         y="0" /><rect
         style="fill:#eef10a;fill-opacity:0.3;stroke-width:0.608625"
         id="rect234-1-2"
         width="20"
         height="768"
         x="742.00006"
         y="0" /><rect
         style="fill:#7bcc03;fill-opacity:0.3;stroke-width:1.05417"
         id="rect234-2-6"
         width="60"
         height="768"
         x="762.00006"
         y="0" /><rect
         style="fill:#eef10a;fill-opacity:0.3;stroke-width:0.608625"
         id="rect234-1-7-4"
         width="20"
         height="768"
         x="822.00006"
         y="0" /><rect
         style="fill:#7bcc03;fill-opacity:0.3;stroke-width:1.05417"
         id="rect234-4-4"
         width="60"
         height="768"
         x="842.00006"
         y="0" /><rect
         style="fill:#eef10a;fill-opacity:0.3;stroke-width:0.608625"
         id="rect234-1-3-8"
         width="20"
         height="768"
         x="902.00006"
         y="0" /><rect
         style="fill:#7bcc03;fill-opacity:0.3;stroke-width:1.05417"
         id="rect234-2-9-3"
         width="60"
         height="768"
         x="922.00006"
         y="0" /><rect
         style="fill:#000000;fill-opacity:0.1;stroke-width:0.54437"
         id="rect3018"
         width="1024"
         height="12"
         x="0"
         y="78" /><rect
         style="fill:#000000;fill-opacity:0.1;stroke-width:0.544371"
         id="rect3020"
         width="1024"
         height="12"
         x="0"
         y="0" /><rect
         style="fill:#000000;fill-opacity:0.1;stroke-width:1.08874"
         id="rect3518"
         width="1024"
         height="48"
         x="-7.6293945e-06"
         y="94" /><rect
         style="fill:#000000;fill-opacity:0.1;stroke-width:1.08874"
         id="rect3551"
         width="1024"
         height="48"
         x="-7.6293945e-06"
         y="224.84799" /></g><rect
       style="fill:#ffffff;stroke-width:9.45357"
       id="rect6107"
       width="160.92863"
       height="66"
       x="122.00002"
       y="12"
       inkscape:export-filename="..\..\..\Visual\ne-logo-bw.png"
       inkscape:export-xdpi="300"
       inkscape:export-ydpi="300" /><g
       id="g3064"
       inkscape:label="logo"
       style="display:inline"
       transform="matrix(0.35610987,0,0,0.35610987,33.680472,97.858613)"><text
         xml:space="preserve"
         style="font-size:33.7188px;line-height:0.83;letter-spacing:0.764695px;display:none;fill:#262626;fill-opacity:1;stroke:none;stroke-width:1.92679;stroke-dasharray:none;stroke-opacity:1"
         x="425.70706"
         y="-206.52426"
         id="text3062"><tspan
           sodipodi:role="line"
           style="font-style:normal;font-variant:normal;font-weight:normal;font-stretch:normal;font-size:33.7188px;font-family:'Nunito Sans';-inkscape-font-specification:'Nunito Sans';fill:#262626;fill-opacity:1;stroke-width:1.92679"
           x="0"
           y="0"
           id="tspan3058">некоммерческая</tspan><tspan
           sodipodi:role="line"
           style="font-style:normal;font-variant:normal;font-weight:normal;font-stretch:normal;font-size:33.7188px;font-family:'Nunito Sans';-inkscape-font-specification:'Nunito Sans';fill:#262626;fill-opacity:1;stroke-width:1.92679"
           x="0"
           y="0"
           id="tspan3060">организация</tspan></text><g
         aria-label="некоммерческая организация"
         id="text359-1"
         style="font-size:33.7188px;line-height:0.83;letter-spacing:0.764695px;display:inline;fill:#232323;fill-opacity:1;stroke-width:1.92679"
         transform="translate(-1.3012299,119.77285)"><g
           aria-label="сообщество  любящих родных"
           id="text1497"
           style="font-weight:bold;font-size:33.6975px;line-height:0.8;font-family:Comfortaa;-inkscape-font-specification:'Comfortaa Bold';text-align:end;text-anchor:end;fill:#232323;fill-opacity:1;stroke-width:10.6134"><path
             d="m 438.19312,-204.29125 q -2.45991,0 -4.24588,-1.04462 -1.78597,-1.07832 -2.7632,-2.99908 -0.94353,-1.95446 -0.94353,-4.54916 0,-3.90891 2.12295,-6.13295 2.12294,-2.25773 5.82966,-2.25773 1.51639,0 2.99908,0.53916 1.48269,0.53916 2.45992,1.51639 l -0.94353,1.98815 q -0.97723,-0.94353 -2.15664,-1.3816 -1.14572,-0.43806 -2.19034,-0.43806 -2.56101,0 -3.94261,1.61747 -1.38159,1.58379 -1.38159,4.58286 0,2.93169 1.38159,4.65026 1.3816,1.68487 3.94261,1.68487 1.04462,0 2.19034,-0.43806 1.17941,-0.43807 2.15664,-1.4153 l 0.94353,1.98815 q -0.97723,0.97723 -2.49362,1.55009 -1.48269,0.53916 -2.96538,0.53916 z"
             style="font-weight:normal;font-family:'Nunito Sans';-inkscape-font-specification:'Nunito Sans';text-align:start;text-anchor:start;fill:#232323;fill-opacity:1"
             id="path2002" /><path
             d="m 454.76193,-204.29125 q -2.39252,0 -4.14479,-1.04462 -1.75227,-1.04463 -2.7295,-2.93169 -0.94353,-1.92075 -0.94353,-4.51546 0,-2.59471 0.94353,-4.48177 0.97723,-1.92075 2.7295,-2.96538 1.75227,-1.04462 4.14479,-1.04462 2.35883,0 4.1111,1.04462 1.78596,1.04463 2.72949,2.96538 0.97723,1.88706 0.97723,4.48177 0,2.59471 -0.97723,4.51546 -0.94353,1.88706 -2.72949,2.93169 -1.75227,1.04462 -4.1111,1.04462 z m 0,-2.19034 q 2.29143,0 3.67303,-1.61748 1.3816,-1.65118 1.3816,-4.68395 0,-3.06647 -1.3816,-4.68395 -1.3816,-1.61748 -3.67303,-1.61748 -2.32513,0 -3.70672,1.61748 -1.3479,1.61748 -1.3479,4.68395 0,3.03277 1.3479,4.68395 1.38159,1.61748 3.70672,1.61748 z"
             style="font-weight:normal;font-family:'Nunito Sans';-inkscape-font-specification:'Nunito Sans';text-align:start;text-anchor:start;fill:#232323;fill-opacity:1"
             id="path2004" /><path
             d="m 474.59941,-204.29125 q -2.39252,0 -4.14479,-1.04462 -1.75227,-1.04463 -2.7295,-2.93169 -0.94353,-1.92075 -0.94353,-4.51546 0,-2.59471 0.94353,-4.48177 0.97723,-1.92075 2.7295,-2.96538 1.75227,-1.04462 4.14479,-1.04462 2.35883,0 4.1111,1.04462 1.78596,1.04463 2.72949,2.96538 0.97723,1.88706 0.97723,4.48177 0,2.59471 -0.97723,4.51546 -0.94353,1.88706 -2.72949,2.93169 -1.75227,1.04462 -4.1111,1.04462 z m 0,-2.19034 q 2.29143,0 3.67303,-1.61748 1.3816,-1.65118 1.3816,-4.68395 0,-3.06647 -1.3816,-4.68395 -1.3816,-1.61748 -3.67303,-1.61748 -2.32513,0 -3.70672,1.61748 -1.3479,1.61748 -1.3479,4.68395 0,3.03277 1.3479,4.68395 1.38159,1.61748 3.70672,1.61748 z"
             style="font-weight:normal;font-family:'Nunito Sans';-inkscape-font-specification:'Nunito Sans';text-align:start;text-anchor:start;fill:#232323;fill-opacity:1"
             id="path2006" /><path
             d="m 494.50428,-204.29125 q -3.63933,0 -5.76227,-2.39252 -2.12294,-2.39253 -2.12294,-6.94169 v -2.52731 q 0,-4.88614 1.95445,-7.41345 1.95446,-2.56101 5.93076,-3.63933 l 5.82967,-1.65118 0.90983,2.25774 -6.53731,1.75227 q -2.7295,0.74134 -4.1111,2.6621 -1.3479,1.88706 -1.3479,4.65025 v 0.0674 q 0.77505,-1.65118 2.29143,-2.59471 1.51639,-0.97723 3.57194,-0.97723 2.12294,0 3.74042,1.01093 1.61748,1.01092 2.49362,2.89798 0.90983,1.85336 0.90983,4.38068 0,2.56101 -0.97723,4.48176 -0.94353,1.88706 -2.6958,2.93169 -1.71857,1.04462 -4.0774,1.04462 z m -0.10109,-2.19034 q 2.39252,0 3.74042,-1.58378 1.3479,-1.61748 1.3479,-4.61656 0,-2.93168 -1.3479,-4.54916 -1.3479,-1.61748 -3.70672,-1.61748 -2.35883,0 -3.70673,1.58378 -1.3479,1.58378 -1.3479,4.34698 0,3.16756 1.31421,4.81874 1.3142,1.61748 3.70672,1.61748 z"
             style="font-weight:normal;font-family:'Nunito Sans';-inkscape-font-specification:'Nunito Sans';text-align:start;text-anchor:start;fill:#232323;fill-opacity:1"
             id="path2008" /><path
             d="m 529.20236,-200.21385 v -4.38068 h -21.76858 v -16.37698 h 2.6284 v 14.18664 h 6.84059 v -14.18664 h 2.59471 v 14.18664 h 6.84059 v -14.18664 h 2.62841 v 14.18664 h 2.5947 v 6.57102 z"
             style="font-weight:normal;font-family:'Nunito Sans';-inkscape-font-specification:'Nunito Sans';text-align:start;text-anchor:start;fill:#232323;fill-opacity:1"
             id="path2010" /><path
             d="m 543.37864,-204.29125 q -3.87521,0 -6.13294,-2.25773 -2.25773,-2.29143 -2.25773,-6.20034 0,-2.52732 1.01092,-4.44807 1.01093,-1.95446 2.7632,-2.99908 1.78596,-1.07832 4.11109,-1.07832 3.33605,0 5.22311,2.15664 1.88706,2.12294 1.88706,5.86336 v 1.04463 h -12.33328 q 0.13479,2.79689 1.61748,4.27958 1.48269,1.44899 4.11109,1.44899 1.48269,0 2.83059,-0.43807 1.3479,-0.47176 2.56101,-1.51638 l 0.94353,1.92075 q -1.11201,1.04463 -2.83059,1.65118 -1.71857,0.57286 -3.50454,0.57286 z m -0.43806,-14.96169 q -2.32513,0 -3.67303,1.44899 -1.3479,1.44899 -1.58378,3.80782 h 9.94076 q -0.10109,-2.49362 -1.3142,-3.87521 -1.17942,-1.3816 -3.36975,-1.3816 z"
             style="font-weight:normal;font-family:'Nunito Sans';-inkscape-font-specification:'Nunito Sans';text-align:start;text-anchor:start;fill:#232323;fill-opacity:1"
             id="path2012" /><path
             d="m 561.96931,-204.29125 q -2.45992,0 -4.24589,-1.04462 -1.78596,-1.07832 -2.76319,-2.99908 -0.94353,-1.95446 -0.94353,-4.54916 0,-3.90891 2.12294,-6.13295 2.12294,-2.25773 5.82967,-2.25773 1.51639,0 2.99908,0.53916 1.48269,0.53916 2.45991,1.51639 l -0.94353,1.98815 q -0.97722,-0.94353 -2.15664,-1.3816 -1.14571,-0.43806 -2.19033,-0.43806 -2.56101,0 -3.94261,1.61747 -1.3816,1.58379 -1.3816,4.58286 0,2.93169 1.3816,4.65026 1.3816,1.68487 3.94261,1.68487 1.04462,0 2.19033,-0.43806 1.17942,-0.43807 2.15664,-1.4153 l 0.94353,1.98815 q -0.97722,0.97723 -2.49361,1.55009 -1.48269,0.53916 -2.96538,0.53916 z"
             style="font-weight:normal;font-family:'Nunito Sans';-inkscape-font-specification:'Nunito Sans';text-align:start;text-anchor:start;fill:#232323;fill-opacity:1"
             id="path2014" /><path
             d="m 575.10097,-204.59453 v -14.18664 h -5.93076 v -2.19034 h 14.62472 v 2.19034 h -5.96446 v 14.18664 z"
             style="font-weight:normal;font-family:'Nunito Sans';-inkscape-font-specification:'Nunito Sans';text-align:start;text-anchor:start;fill:#232323;fill-opacity:1"
             id="path2016" /><path
             d="m 587.42392,-204.59453 v -16.37698 h 7.98631 q 2.89798,0 4.27958,1.11202 1.3816,1.07832 1.3816,3.20126 0,1.2805 -0.74135,2.22403 -0.70765,0.94353 -1.95445,1.3816 1.51638,0.37067 2.35882,1.41529 0.87614,1.04463 0.87614,2.52732 0,2.08924 -1.55009,3.30235 -1.55008,1.21311 -4.38067,1.21311 z m 2.59471,-9.26681 h 5.25681 q 1.55008,0 2.39252,-0.67395 0.84244,-0.70765 0.84244,-1.98815 0,-1.24681 -0.84244,-1.92076 -0.84244,-0.67395 -2.39252,-0.67395 h -5.25681 z m 0,7.41345 h 5.56008 q 1.68488,0 2.56101,-0.70765 0.87614,-0.70765 0.87614,-2.08924 0,-1.3479 -0.87614,-2.05555 -0.87613,-0.70765 -2.56101,-0.70765 h -5.56008 z"
             style="font-weight:normal;font-family:'Nunito Sans';-inkscape-font-specification:'Nunito Sans';text-align:start;text-anchor:start;fill:#232323;fill-opacity:1"
             id="path2018" /><path
             d="m 613.46176,-204.29125 q -2.39252,0 -4.14479,-1.04462 -1.75227,-1.04463 -2.7295,-2.93169 -0.94353,-1.92075 -0.94353,-4.51546 0,-2.59471 0.94353,-4.48177 0.97723,-1.92075 2.7295,-2.96538 1.75227,-1.04462 4.14479,-1.04462 2.35883,0 4.1111,1.04462 1.78596,1.04463 2.72949,2.96538 0.97723,1.88706 0.97723,4.48177 0,2.59471 -0.97723,4.51546 -0.94353,1.88706 -2.72949,2.93169 -1.75227,1.04462 -4.1111,1.04462 z m 0,-2.19034 q 2.29143,0 3.67303,-1.61748 1.3816,-1.65118 1.3816,-4.68395 0,-3.06647 -1.3816,-4.68395 -1.3816,-1.61748 -3.67303,-1.61748 -2.32513,0 -3.70672,1.61748 -1.3479,1.61748 -1.3479,4.68395 0,3.03277 1.3479,4.68395 1.38159,1.61748 3.70672,1.61748 z"
             style="font-weight:normal;font-family:'Nunito Sans';-inkscape-font-specification:'Nunito Sans';text-align:start;text-anchor:start;fill:#232323;fill-opacity:1"
             id="path2020" /><path
             d="m 430.30791,-175.61696 -1.01093,-2.15664 q 1.51639,-0.64026 2.39253,-1.78597 0.87613,-1.17941 1.21311,-3.23496 0.37067,-2.05555 0.37067,-5.3916 v -4.17849 h 11.89522 v 16.37698 h -2.7295 v -14.18664 h -6.60471 v 2.08924 q 0,3.84152 -0.57286,6.33513 -0.53916,2.49362 -1.75227,3.94261 -1.21311,1.44899 -3.20126,2.19034 z"
             style="font-weight:normal;font-family:'Nunito Sans';-inkscape-font-specification:'Nunito Sans';text-align:start;text-anchor:start;fill:#232323;fill-opacity:1"
             id="path2022" /><path
             d="m 465.00596,-175.68436 q -3.36975,0 -5.42529,-2.05555 -2.05555,-2.08924 -2.32513,-5.59378 h -3.26866 v 7.34605 h -2.6621 v -16.37698 h 2.6621 v 6.80689 h 3.30236 q 0.40437,-3.30235 2.42622,-5.18941 2.05554,-1.92076 5.2905,-1.92076 2.39253,0 4.1448,1.04462 1.75227,1.04463 2.6958,2.96538 0.97722,1.88706 0.97722,4.48177 0,2.59471 -0.97722,4.51547 -0.94353,1.88706 -2.6958,2.93168 -1.75227,1.04462 -4.1448,1.04462 z m 0,-2.19034 q 2.32513,0 3.67303,-1.61748 1.3816,-1.65117 1.3816,-4.68395 0,-3.06647 -1.3816,-4.68395 -1.3479,-1.61748 -3.67303,-1.61748 -2.29143,0 -3.67302,1.61748 -1.3816,1.61748 -1.3816,4.68395 0,3.03278 1.3816,4.68395 1.38159,1.61748 3.67302,1.61748 z"
             style="font-weight:normal;font-family:'Nunito Sans';-inkscape-font-specification:'Nunito Sans';text-align:start;text-anchor:start;fill:#232323;fill-opacity:1"
             id="path2024" /><path
             d="m 484.91081,-175.68436 q -3.63933,0 -5.76227,-2.39252 -2.12295,-2.39252 -2.12295,-6.94169 v -2.52731 q 0,-4.88614 1.95446,-7.41345 1.95445,-2.56101 5.93076,-3.63933 l 5.82967,-1.65118 0.90983,2.25774 -6.53732,1.75227 q -2.72949,0.74134 -4.11109,2.6621 -1.3479,1.88706 -1.3479,4.65025 v 0.0674 q 0.77504,-1.65118 2.29143,-2.59471 1.51639,-0.97723 3.57193,-0.97723 2.12295,0 3.74043,1.01093 1.61748,1.01092 2.49361,2.89798 0.90983,1.85337 0.90983,4.38068 0,2.56101 -0.97722,4.48177 -0.94353,1.88706 -2.6958,2.93168 -1.71858,1.04462 -4.0774,1.04462 z m -0.10109,-2.19034 q 2.39252,0 3.74042,-1.58378 1.3479,-1.61748 1.3479,-4.61656 0,-2.93168 -1.3479,-4.54916 -1.3479,-1.61748 -3.70673,-1.61748 -2.35882,0 -3.70672,1.58378 -1.3479,1.58379 -1.3479,4.34698 0,3.16757 1.3142,4.81874 1.3142,1.61748 3.70673,1.61748 z"
             style="font-weight:normal;font-family:'Nunito Sans';-inkscape-font-specification:'Nunito Sans';text-align:start;text-anchor:start;fill:#232323;fill-opacity:1"
             id="path2026" /><path
             d="m 496.4924,-175.98764 2.52731,-4.38067 q 1.01093,-1.78597 2.59471,-2.32513 -2.08924,-0.30328 -3.23496,-1.51639 -1.14571,-1.2468 -1.14571,-3.23496 0,-2.25773 1.48269,-3.57193 1.51638,-1.3479 4.51546,-1.3479 h 7.37975 v 16.37698 h -2.5947 v -6.23403 h -2.39253 q -1.3479,0 -2.29143,0.67395 -0.90983,0.67395 -1.48269,1.65117 l -2.22403,3.90891 z m 7.24496,-8.22219 h 4.27959 v -6.23403 h -4.27959 q -1.98815,0 -2.93168,0.84243 -0.94353,0.80874 -0.94353,2.25774 0,1.48269 0.94353,2.32512 0.94353,0.80874 2.93168,0.80874 z"
             style="font-weight:normal;font-family:'Nunito Sans';-inkscape-font-specification:'Nunito Sans';text-align:start;text-anchor:start;fill:#232323;fill-opacity:1"
             id="path2028" /><path
             d="m 538.53652,-171.60696 v -4.38068 h -21.76858 v -16.37698 h 2.6284 v 14.18665 h 6.84059 v -14.18665 h 2.59471 v 14.18665 h 6.84059 v -14.18665 h 2.62841 v 14.18665 h 2.5947 v 6.57101 z"
             style="font-weight:normal;font-family:'Nunito Sans';-inkscape-font-specification:'Nunito Sans';text-align:start;text-anchor:start;fill:#232323;fill-opacity:1"
             id="path2030" /><path
             d="m 545.29935,-175.98764 v -16.37698 h 2.49361 v 12.67026 l 9.469,-12.67026 h 2.32513 v 16.37698 h -2.49362 v -12.67026 l -9.469,12.67026 z"
             style="font-weight:normal;font-family:'Nunito Sans';-inkscape-font-specification:'Nunito Sans';text-align:start;text-anchor:start;fill:#232323;fill-opacity:1"
             id="path2032" /><path
             d="m 563.68781,-175.98764 6.8069,-8.45807 -6.40253,-7.91891 h 3.23496 l 4.75135,6.03185 4.78505,-6.03185 h 3.20126 l -6.40253,7.91891 6.8069,8.45807 h -3.23496 l -5.18942,-6.50361 -5.12202,6.50361 z"
             style="font-weight:normal;font-family:'Nunito Sans';-inkscape-font-specification:'Nunito Sans';text-align:start;text-anchor:start;fill:#232323;fill-opacity:1"
             id="path2034" /><path
             d="m 593.99486,-169.92209 v -22.44253 h 2.66211 v 2.93168 q 0.74134,-1.51639 2.19033,-2.35882 1.48269,-0.87614 3.43715,-0.87614 2.19033,0 3.80781,1.04462 1.65118,1.01093 2.52732,2.93169 0.90983,1.88706 0.90983,4.51546 0,2.59471 -0.90983,4.51547 -0.87614,1.88706 -2.52732,2.93168 -1.61748,1.04462 -3.80781,1.04462 -1.88706,0 -3.36975,-0.84244 -1.48269,-0.84243 -2.19034,-2.32512 v 8.92983 z m 7.71673,-7.95261 q 2.29143,0 3.67303,-1.61748 1.38159,-1.65117 1.38159,-4.68395 0,-3.06647 -1.38159,-4.68395 -1.3816,-1.61748 -3.67303,-1.61748 -2.29143,0 -3.67303,1.61748 -1.38159,1.61748 -1.38159,4.68395 0,3.03278 1.38159,4.68395 1.3816,1.61748 3.67303,1.61748 z"
             style="font-weight:normal;font-family:'Nunito Sans';-inkscape-font-specification:'Nunito Sans';text-align:start;text-anchor:start;fill:#232323;fill-opacity:1"
             id="path2036" /><path
             d="m 621.54909,-175.68436 q -2.39253,0 -4.14479,-1.04462 -1.75227,-1.04462 -2.7295,-2.93168 -0.94353,-1.92076 -0.94353,-4.51547 0,-2.59471 0.94353,-4.48177 0.97723,-1.92075 2.7295,-2.96538 1.75226,-1.04462 4.14479,-1.04462 2.35882,0 4.11109,1.04462 1.78597,1.04463 2.7295,2.96538 0.97723,1.88706 0.97723,4.48177 0,2.59471 -0.97723,4.51547 -0.94353,1.88706 -2.7295,2.93168 -1.75227,1.04462 -4.11109,1.04462 z m 0,-2.19034 q 2.29143,0 3.67302,-1.61748 1.3816,-1.65117 1.3816,-4.68395 0,-3.06647 -1.3816,-4.68395 -1.38159,-1.61748 -3.67302,-1.61748 -2.32513,0 -3.70673,1.61748 -1.3479,1.61748 -1.3479,4.68395 0,3.03278 1.3479,4.68395 1.3816,1.61748 3.70673,1.61748 z"
             style="font-weight:normal;font-family:'Nunito Sans';-inkscape-font-specification:'Nunito Sans';text-align:start;text-anchor:start;fill:#232323;fill-opacity:1"
             id="path2038" /><path
             d="m 632.76001,-171.60696 v -6.57101 h 1.71857 q 1.17941,-1.71858 1.68487,-3.94261 0.50547,-2.25773 0.50547,-5.4253 v -4.81874 h 11.59194 v 14.18665 h 2.5947 v 6.57101 h -2.35882 v -4.38068 h -13.41161 v 4.38068 z m 4.34697,-6.57101 h 8.55917 v -12.03001 h -6.57101 v 3.13387 q 0,2.52731 -0.50547,4.88613 -0.50546,2.35883 -1.48269,4.01001 z"
             style="font-weight:normal;font-family:'Nunito Sans';-inkscape-font-specification:'Nunito Sans';text-align:start;text-anchor:start;fill:#232323;fill-opacity:1"
             id="path2040" /><path
             d="m 655.25963,-175.98764 v -16.37698 h 2.72949 v 6.80689 h 8.92984 v -6.80689 h 2.7295 v 16.37698 h -2.7295 v -7.34605 h -8.92984 v 7.34605 z"
             style="font-weight:normal;font-family:'Nunito Sans';-inkscape-font-specification:'Nunito Sans';text-align:start;text-anchor:start;fill:#232323;fill-opacity:1"
             id="path2042" /><path
             d="m 675.80475,-175.98764 v -16.37698 h 2.72949 v 5.82967 h 4.95354 q 3.13386,0 4.75134,1.38159 1.61748,1.3479 1.61748,3.84152 0,2.45992 -1.68487,3.90891 -1.65118,1.41529 -4.68395,1.41529 z m 16.47807,0 v -16.37698 h 2.7295 v 16.37698 z m -13.74858,-1.95445 h 4.68396 q 1.88706,0 2.93168,-0.80874 1.07832,-0.80874 1.07832,-2.52731 0,-1.68488 -1.04462,-2.49362 -1.04463,-0.80874 -2.96538,-0.80874 h -4.68396 z"
             style="font-weight:normal;font-family:'Nunito Sans';-inkscape-font-specification:'Nunito Sans';text-align:start;text-anchor:start;fill:#232323;fill-opacity:1"
             id="path2044" /><path
             d="m 699.11306,-175.98764 6.8069,-8.45807 -6.40253,-7.91891 h 3.23496 l 4.75135,6.03185 4.78504,-6.03185 h 3.20127 l -6.40253,7.91891 6.8069,8.45807 h -3.23496 l -5.18942,-6.50361 -5.12202,6.50361 z"
             style="font-weight:normal;font-family:'Nunito Sans';-inkscape-font-specification:'Nunito Sans';text-align:start;text-anchor:start;fill:#232323;fill-opacity:1"
             id="path2046" /></g></g><g
         id="g2849"
         transform="matrix(3.779473,0,0,3.7794561,-337.45399,-1143.7546)"
         inkscape:label="Heart2"
         style="display:inline"><rect
           style="display:inline;fill:#f4cdd1;fill-opacity:1;stroke:none;stroke-width:0.288873;stroke-dasharray:none;stroke-opacity:1"
           id="rect2835"
           width="44.304382"
           height="44.30439"
           x="154.9068"
           y="243.56485" /><path
           id="path2837"
           style="display:inline;fill:#006847;fill-opacity:1;stroke-width:0.288873"
           d="m 199.21118,243.56484 v 44.30439 H 154.9068 Z"
           sodipodi:nodetypes="cccc" /><path
           id="path2839"
           style="fill:#006847;fill-opacity:1;stroke-width:0.555705"
           d="m 186.26514,248.38284 a 3.6485724,3.6486013 0 0 0 -3.6486,3.64844 3.6485724,3.6486013 0 0 1 0,1.9e-4 v 8.12801 h 8.12538 a 3.6485724,3.6486013 0 0 0 0.003,0 3.6485724,3.6486013 0 0 0 3.64859,-3.64863 3.6485724,3.6486013 0 0 0 -3.64859,-3.64843 3.6485724,3.6486013 0 0 0 -0.9629,0.13195 3.6485724,3.6486013 0 0 0 0.13196,-0.96309 3.6485724,3.6486013 0 0 0 -3.6486,-3.64844 z" /><path
           id="path2841"
           style="display:inline;fill:#f4cdd1;fill-opacity:1;stroke-width:0.288873"
           d="m 190.74469,252.86245 a 3.6485724,3.6486013 0 0 0 -0.96274,0.13178 l -7.16545,7.16545 h 8.1256 a 3.6485724,3.6486013 0 0 0 0.003,0 3.6485724,3.6486013 0 0 0 3.64887,-3.64887 3.6485724,3.6486013 0 0 0 -3.64887,-3.64836 z" /><path
           id="path2843"
           style="fill:#006847;fill-opacity:1;stroke-width:0.899395"
           d="m 160.98509,255.35782 a 5.9051754,5.9051271 45 0 0 -1.9e-4,8.35098 5.9051754,5.9051271 45 0 1 2.3e-4,2.2e-4 l 9.30197,9.30198 9.29894,-9.29895 a 5.9051754,5.9051271 45 0 0 0.003,-0.003 5.9051754,5.9051271 45 0 0 -4e-5,-8.3512 5.9051754,5.9051271 45 0 0 -8.35097,1.9e-4 5.9051754,5.9051271 45 0 0 -0.95095,1.25299 5.9051754,5.9051271 45 0 0 -0.95119,-1.25323 5.9051754,5.9051271 45 0 0 -8.35097,1.9e-4 z" /><path
           id="path2845"
           style="fill:#f4cdd1;fill-opacity:1;stroke-width:1.15742"
           d="m 181.54877,264.37544 a 7.5992396,7.5992351 45 0 0 -5.36814,2.22002 7.5992396,7.5992351 45 0 0 -0.006,0.005 7.5992396,7.5992351 45 0 1 0,5.2e-4 l -11.97032,11.97033 9.29762,9.29762 h 15.14119 a 7.5992396,7.5992351 45 0 0 -1.72186,-8.07341 7.5992396,7.5992351 45 0 0 -1.6123,-1.2237 7.5992396,7.5992351 45 0 0 1.61282,-1.22421 7.5992396,7.5992351 45 0 0 -5.2e-4,-10.74663 7.5992396,7.5992351 45 0 0 -5.3728,-2.22571 z" /><path
           id="path2847"
           style="display:inline;fill:#402828;fill-opacity:1;stroke-width:0.162713"
           d="m 188.50503,254.27118 -29.9445,33.59807 h -3.65373 v -3.65371 z"
           sodipodi:nodetypes="ccccc" /></g><g
         id="g2941"
         transform="matrix(10.613375,0,0,10.613375,-201.52863,-1513.4547)"><g
           id="g2921"
           transform="translate(-0.321304,5.52879)"><path
             d="m 61.770628,120.75526 q -0.751853,0 -1.291644,-0.28523 -0.539792,-0.28523 -0.828966,-0.80499 -0.282748,-0.51976 -0.282748,-1.21699 0,-0.69724 0.282748,-1.21066 0.289174,-0.51976 0.828966,-0.80499 0.539791,-0.28524 1.291644,-0.28524 0.449826,0 0.867522,0.13946 0.417696,0.13311 0.67474,0.35495 l -0.353435,0.91909 q -0.282748,-0.20283 -0.565496,-0.29791 -0.282748,-0.10142 -0.578348,-0.10142 -0.597627,0 -0.899653,0.33594 -0.302026,0.3296 -0.302026,0.95078 0,0.62751 0.302026,0.96345 0.302026,0.3296 0.899653,0.3296 0.2956,0 0.578348,-0.0951 0.282748,-0.10142 0.565496,-0.30425 l 0.353435,0.91908 q -0.257044,0.22185 -0.67474,0.36129 -0.417696,0.13311 -0.867522,0.13311 z"
             style="font-weight:900;font-size:7.251px;line-height:0.83;font-family:'Nunito Sans';-inkscape-font-specification:'Nunito Sans Heavy';letter-spacing:0.079375px;fill:#333333;stroke-width:0.176035"
             id="path2851" /><path
             d="m 63.968011,120.68554 v -4.46864 h 1.098861 v 2.5861 l 2.075628,-2.5861 h 0.867522 v 4.46864 h -1.092436 v -2.59245 l -2.082053,2.59245 z"
             style="font-weight:900;font-size:7.251px;line-height:0.83;font-family:'Nunito Sans';-inkscape-font-specification:'Nunito Sans Heavy';letter-spacing:0.079375px;fill:#333333;stroke-width:0.176035"
             id="path2853" /><path
             d="m 69.159946,120.80597 -0.597626,-0.83034 q 0.353435,-0.20283 0.571922,-0.49441 0.218487,-0.29791 0.321305,-0.74794 0.102817,-0.45637 0.102817,-1.14093 v -1.37545 h 3.444385 v 4.46864 h -1.182401 v -3.51787 h -1.182401 v 0.72893 q 0,1.1536 -0.398417,1.86351 -0.391992,0.70992 -1.079584,1.04586 z"
             style="font-weight:900;font-size:7.251px;line-height:0.83;font-family:'Nunito Sans';-inkscape-font-specification:'Nunito Sans Heavy';letter-spacing:0.079375px;fill:#333333;stroke-width:0.176035"
             id="path2855" /><path
             d="m 73.349412,120.68554 2.12061,-4.46864 h 0.931783 l 2.12061,4.46864 h -1.182401 l -0.391991,-0.9064 h -2.024219 l -0.391991,0.9064 z m 2.576862,-3.25165 -0.616904,1.45152 h 1.246661 l -0.616905,-1.45152 z"
             style="font-weight:900;font-size:7.251px;line-height:0.83;font-family:'Nunito Sans';-inkscape-font-specification:'Nunito Sans Heavy';letter-spacing:0.079375px;fill:#333333;stroke-width:0.176035"
             id="path2857" /></g><g
           id="g2928"><path
             d="m 61.449323,131.86195 q -0.751852,0 -1.291644,-0.28524 -0.539791,-0.28523 -0.828965,-0.80498 -0.282748,-0.51977 -0.282748,-1.217 0,-0.69724 0.282748,-1.21066 0.289174,-0.51975 0.828965,-0.80498 0.539792,-0.28524 1.291644,-0.28524 0.449827,0 0.867523,0.13945 0.417696,0.13311 0.674739,0.35496 l -0.353435,0.91908 q -0.282748,-0.20283 -0.565496,-0.29791 -0.282748,-0.10142 -0.578348,-0.10142 -0.597626,0 -0.899653,0.33594 -0.302026,0.32961 -0.302026,0.95078 0,0.62751 0.302026,0.96346 0.302027,0.3296 0.899653,0.3296 0.2956,0 0.578348,-0.0951 0.282748,-0.10141 0.565496,-0.30424 l 0.353435,0.91907 q -0.257043,0.22186 -0.674739,0.3613 -0.417696,0.13311 -0.867523,0.13311 z"
             style="font-weight:900;font-size:7.251px;line-height:0.83;font-family:'Nunito Sans';-inkscape-font-specification:'Nunito Sans Heavy';letter-spacing:0.079375px;fill:#333333;stroke-width:0.176035"
             id="path2875" /><path
             d="m 63.646706,131.79223 v -4.46865 h 3.200193 v 0.90006 h -2.069201 v 0.84937 h 1.921401 v 0.90006 h -1.921401 v 0.91909 h 2.069201 v 0.90007 z"
             style="font-weight:900;font-size:7.251px;line-height:0.83;font-family:'Nunito Sans';-inkscape-font-specification:'Nunito Sans Heavy';letter-spacing:0.079375px;fill:#333333;stroke-width:0.176035"
             id="path2877" /><path
             d="m 67.707995,131.79223 v -4.46865 h 0.983192 l 1.445871,2.56076 1.44587,-2.56076 h 0.957488 v 4.46865 h -1.066731 v -2.42766 l -1.034601,1.76845 h -0.642609 l -1.021748,-1.74309 v 2.4023 z"
             style="font-weight:900;font-size:7.251px;line-height:0.83;font-family:'Nunito Sans';-inkscape-font-specification:'Nunito Sans Heavy';letter-spacing:0.079375px;fill:#333333;stroke-width:0.176035"
             id="path2879" /><path
             d="m 73.446158,131.79223 v -4.46865 h 1.1824 v 1.73675 h 1.066731 q 0.739001,0 1.163123,0.35495 0.430548,0.35496 0.430548,1.00783 0,0.65921 -0.430548,1.01416 -0.424122,0.35496 -1.163123,0.35496 z m 1.1824,-0.88106 h 0.906079 q 0.327731,0 0.475531,-0.12043 0.154226,-0.12043 0.154226,-0.36763 0,-0.24087 -0.154226,-0.3613 -0.1478,-0.12042 -0.475531,-0.12042 h -0.906079 z"
             style="font-weight:900;font-size:7.251px;line-height:0.83;font-family:'Nunito Sans';-inkscape-font-specification:'Nunito Sans Heavy';letter-spacing:0.079375px;fill:#333333;stroke-width:0.176035"
             id="path2881" /><path
             d="m 77.937651,131.79223 v -4.46865 h 1.098862 v 2.58611 l 2.075627,-2.58611 h 0.867522 v 4.46865 h -1.092435 v -2.59245 l -2.082053,2.59245 z"
             style="font-weight:900;font-size:7.251px;line-height:0.83;font-family:'Nunito Sans';-inkscape-font-specification:'Nunito Sans Heavy';letter-spacing:0.079375px;fill:#333333;stroke-width:0.176035"
             id="path2883" /></g></g></g><g
       inkscape:groupmode="layer"
       id="g5832"
       inkscape:label="Arrow copy 2"
       style="display:none"
       transform="matrix(1.0046433,0,0,1.0046433,118.93572,-104.39297)"><path
         id="path5822"
         style="fill:#333333;fill-opacity:1;stroke-width:0.381454"
         d="m 61.784035,122.42559 v 58.50342 H 3.280606 Z"
         sodipodi:nodetypes="cccc" /><rect
         style="fill:#333333;fill-opacity:1;stroke:none;stroke-width:0.298491;stroke-dasharray:none;stroke-opacity:1"
         id="rect5824"
         width="45.779194"
         height="45.779209"
         x="9.6427231"
         y="128.78769" /><path
         id="path5826"
         style="fill:#ffffff;fill-opacity:1;stroke-width:0.29849"
         d="M 55.421921,128.78769 V 174.5669 H 9.6427226 Z"
         sodipodi:nodetypes="cccc" /><path
         id="path5828"
         style="fill:#ffffff;fill-opacity:1;stroke-width:0.14288"
         d="M 3.280606,166.25162 V 144.33859 H 25.193612 Z"
         sodipodi:nodetypes="cccc" /><path
         id="path5830"
         style="fill:#333333;fill-opacity:1;stroke-width:0.14288"
         d="M 39.871003,159.01599 V 180.929 H 17.958031 Z"
         sodipodi:nodetypes="cccc" /><rect
         style="fill:#000000;fill-opacity:0;stroke:#333333;stroke-width:1.24194;stroke-dasharray:none;stroke-opacity:1"
         id="rect5820"
         width="58.503445"
         height="58.503441"
         x="3.2805917"
         y="122.42557" /></g></g></svg>
