<?xml version="1.0" encoding="UTF-8" standalone="no"?>
<!-- Created with Inkscape (http://www.inkscape.org/) -->

<svg
   width="59.630493"
   height="59.630554"
   viewBox="0 0 59.630493 59.630554"
   version="1.1"
   id="svg5"
   inkscape:version="1.2.1 (9c6d41e410, 2022-07-14)"
   sodipodi:docname="site.svg"
   xml:space="preserve"
   xmlns:inkscape="http://www.inkscape.org/namespaces/inkscape"
   xmlns:sodipodi="http://sodipodi.sourceforge.net/DTD/sodipodi-0.dtd"
   xmlns="http://www.w3.org/2000/svg"
   xmlns:svg="http://www.w3.org/2000/svg"><sodipodi:namedview
     id="namedview7"
     pagecolor="#ffffff"
     bordercolor="#000000"
     borderopacity="0.25"
     inkscape:showpageshadow="false"
     inkscape:pageopacity="0.0"
     inkscape:pagecheckerboard="0"
     inkscape:deskcolor="#d1d1d1"
     inkscape:document-units="px"
     showgrid="false"
     inkscape:zoom="0.5"
     inkscape:cx="385"
     inkscape:cy="596"
     inkscape:window-width="1366"
     inkscape:window-height="705"
     inkscape:window-x="-8"
     inkscape:window-y="-8"
     inkscape:window-maximized="1"
     inkscape:current-layer="layer6"
     showborder="false" /><defs
     id="defs2" /><g
     inkscape:label="Layer 1"
     inkscape:groupmode="layer"
     id="layer1"
     transform="translate(-641.17175,-557.8479)"><g
       id="g2919"
       inkscape:label="grid"
       style="display:inline"><rect
         style="fill:#000000;fill-opacity:0.3;stroke-width:0.993879"
         id="rect234-1-7-9-9"
         width="1024"
         height="40"
         x="0"
         y="-40" /><rect
         style="fill:#000000;fill-opacity:0.1;stroke-width:1.49082"
         id="rect234-1-7-9-9-8"
         width="1024"
         height="90"
         x="0"
         y="0" /><g
         id="g7432"
         transform="scale(1,1.8904668)"><rect
           style="fill:#7bcc03;fill-opacity:0.3;stroke-width:1.05417"
           id="rect234"
           width="60"
           height="768"
           x="42.000023"
           y="0" /><rect
           style="fill:#eef10a;fill-opacity:0.3;stroke-width:0.608625"
           id="rect234-1"
           width="20"
           height="768"
           x="102.00002"
           y="0" /><rect
           style="fill:#7bcc03;fill-opacity:0.3;stroke-width:1.05417"
           id="rect234-2"
           width="60"
           height="768"
           x="122.00002"
           y="0" /><rect
           style="fill:#eef10a;fill-opacity:0.3;stroke-width:0.608625"
           id="rect234-1-7"
           width="20"
           height="768"
           x="182.00002"
           y="0" /><rect
           style="fill:#7bcc03;fill-opacity:0.3;stroke-width:1.05417"
           id="rect234-4"
           width="60"
           height="768"
           x="202.00002"
           y="0" /><rect
           style="fill:#eef10a;fill-opacity:0.3;stroke-width:0.608625"
           id="rect234-1-3"
           width="20"
           height="768"
           x="262"
           y="0" /><rect
           style="fill:#7bcc03;fill-opacity:0.3;stroke-width:1.05417"
           id="rect234-2-9"
           width="60"
           height="768"
           x="282"
           y="0" /><rect
           style="fill:#eef10a;fill-opacity:0.3;stroke-width:0.608625"
           id="rect234-1-7-3"
           width="20"
           height="768"
           x="342"
           y="0" /><rect
           style="fill:#7bcc03;fill-opacity:0.3;stroke-width:1.05417"
           id="rect234-5"
           width="60"
           height="768"
           x="362"
           y="0" /><rect
           style="fill:#eef10a;fill-opacity:0.3;stroke-width:0.608625"
           id="rect234-1-8"
           width="20"
           height="768"
           x="422"
           y="0" /><rect
           style="fill:#7bcc03;fill-opacity:0.3;stroke-width:1.05417"
           id="rect234-2-4"
           width="60"
           height="768"
           x="442"
           y="0" /><rect
           style="fill:#eef10a;fill-opacity:0.3;stroke-width:0.608625"
           id="rect234-1-7-9"
           width="20"
           height="768"
           x="502"
           y="0" /><rect
           style="fill:#7bcc03;fill-opacity:0.3;stroke-width:1.05417"
           id="rect234-4-3"
           width="60"
           height="768"
           x="522"
           y="0" /><rect
           style="fill:#eef10a;fill-opacity:0.3;stroke-width:0.608625"
           id="rect234-1-3-4"
           width="20"
           height="768"
           x="582"
           y="0" /><rect
           style="fill:#7bcc03;fill-opacity:0.3;stroke-width:1.05417"
           id="rect234-2-9-8"
           width="60"
           height="768"
           x="602"
           y="0" /><rect
           style="fill:#eef10a;fill-opacity:0.3;stroke-width:0.608625"
           id="rect234-1-7-3-8"
           width="20"
           height="768"
           x="662"
           y="0" /><rect
           style="fill:#7bcc03;fill-opacity:0.3;stroke-width:1.05417"
           id="rect234-15"
           width="60"
           height="768"
           x="682"
           y="0" /><rect
           style="fill:#eef10a;fill-opacity:0.3;stroke-width:0.608625"
           id="rect234-1-2"
           width="20"
           height="768"
           x="742.00006"
           y="0" /><rect
           style="fill:#7bcc03;fill-opacity:0.3;stroke-width:1.05417"
           id="rect234-2-6"
           width="60"
           height="768"
           x="762.00006"
           y="0" /><rect
           style="fill:#eef10a;fill-opacity:0.3;stroke-width:0.608625"
           id="rect234-1-7-4"
           width="20"
           height="768"
           x="822.00006"
           y="0" /><rect
           style="fill:#7bcc03;fill-opacity:0.3;stroke-width:1.05417"
           id="rect234-4-4"
           width="60"
           height="768"
           x="842.00006"
           y="0" /><rect
           style="fill:#eef10a;fill-opacity:0.3;stroke-width:0.608625"
           id="rect234-1-3-8"
           width="20"
           height="768"
           x="902.00006"
           y="0" /><rect
           style="fill:#7bcc03;fill-opacity:0.3;stroke-width:1.05417"
           id="rect234-2-9-3"
           width="60"
           height="768"
           x="922.00006"
           y="0" /></g><rect
         style="fill:#000000;fill-opacity:0.1;stroke-width:0.54437"
         id="rect3018"
         width="1024"
         height="12"
         x="0"
         y="78" /><rect
         style="fill:#000000;fill-opacity:0.1;stroke-width:0.544371"
         id="rect3020"
         width="1024"
         height="12"
         x="0"
         y="0" /><rect
         style="fill:#000000;fill-opacity:0.1;stroke-width:1.08874"
         id="rect3518"
         width="1024"
         height="48"
         x="-7.6293945e-06"
         y="94" /><rect
         style="fill:#000000;fill-opacity:0.1;stroke-width:1.08874"
         id="rect3551"
         width="1024"
         height="48"
         x="-7.6293945e-06"
         y="224.84799" /></g><g
       inkscape:groupmode="layer"
       id="layer6"
       inkscape:label="Projects"
       transform="translate(0,-108.20502)"><g
         inkscape:groupmode="layer"
         id="layer7"
         inkscape:label="grid 2"
         style="display:none"><rect
           style="display:inline;fill:#000000;fill-opacity:0.1;stroke-width:1.08874"
           id="rect3551-3"
           width="1024"
           height="48"
           x="0"
           y="618.05298" /><rect
           style="display:inline;fill:#000000;fill-opacity:0.1;stroke-width:0.54437"
           id="rect2242"
           width="1024"
           height="12"
           x="0"
           y="725.68347" /></g><g
         id="g4100"
         inkscape:label="szs"
         transform="matrix(0.35611023,0,0,0.35611023,381.11327,420.8781)"><rect
           style="display:inline;fill:#f4cdd1;fill-opacity:1;stroke:none;stroke-width:1.0918;stroke-dasharray:none;stroke-opacity:1"
           id="rect1473-5-78"
           width="167.44963"
           height="167.44966"
           x="730.27521"
           y="688.48016" /><path
           id="rect2767-5-1-6"
           style="display:inline;fill:#006847;fill-opacity:1;stroke-width:1.0918"
           d="M 897.7248,688.48015 V 855.92981 H 730.27517 Z"
           sodipodi:nodetypes="cccc" /><path
           id="path1005-0-9-0"
           style="fill:#006847;fill-opacity:1;stroke-width:2.1003"
           d="m 848.79488,706.68991 a 13.78988,13.789989 0 0 0 -13.78998,13.78938 13.78988,13.789989 0 0 1 0,7.2e-4 v 30.72004 h 30.71009 a 13.78988,13.789989 0 0 0 0.0113,0 13.78988,13.789989 0 0 0 13.78995,-13.7901 13.78988,13.789989 0 0 0 -13.78995,-13.78934 13.78988,13.789989 0 0 0 -3.6393,0.49871 13.78988,13.789989 0 0 0 0.49874,-3.64003 13.78988,13.789989 0 0 0 -13.78998,-13.78938 z" /><path
           id="path2237-6-1"
           style="display:inline;fill:#f4cdd1;fill-opacity:1;stroke-width:1.0918"
           d="m 865.72546,723.62072 a 13.78988,13.789989 0 0 0 -3.6387,0.49807 l -27.08201,27.08202 h 30.71092 a 13.78988,13.789989 0 0 0 0.0113,0 13.78988,13.789989 0 0 0 13.79101,-13.79101 13.78988,13.789989 0 0 0 -13.79101,-13.78908 z" /><path
           id="path1005-7-0-4"
           style="fill:#006847;fill-opacity:1;stroke-width:3.39929"
           d="m 753.24821,733.05204 a 22.318773,22.318591 45 0 0 -7.2e-4,31.56276 22.318773,22.318591 45 0 1 8.7e-4,8.3e-4 l 35.15708,35.15709 35.1456,-35.14563 a 22.318773,22.318591 45 0 0 0.0113,-0.0113 22.318773,22.318591 45 0 0 -1.5e-4,-31.56359 22.318773,22.318591 45 0 0 -31.56273,7.1e-4 22.318773,22.318591 45 0 0 -3.59414,4.73571 22.318773,22.318591 45 0 0 -3.59505,-4.73661 22.318773,22.318591 45 0 0 -31.56274,7.2e-4 z" /><path
           id="path1005-8"
           style="fill:#f4cdd1;fill-opacity:1;stroke-width:4.3745"
           d="m 830.96923,767.13439 a 28.721536,28.721519 45 0 0 -20.28903,8.39062 28.721536,28.721519 45 0 0 -0.0227,0.0189 28.721536,28.721519 45 0 1 0,0.002 l -45.24215,45.24219 35.14061,35.14061 h 57.22654 a 28.721536,28.721519 45 0 0 -6.50782,-30.51368 28.721536,28.721519 45 0 0 -6.09373,-4.625 28.721536,28.721519 45 0 0 6.0957,-4.62694 28.721536,28.721519 45 0 0 -0.002,-40.61718 28.721536,28.721519 45 0 0 -20.30664,-8.41214 z" /><path
           id="rect111-5-7-7-4-3-9-9-0-4-0-5-2-1-0-7"
           style="display:inline;fill:#402828;fill-opacity:1;stroke-width:0.614978"
           d="M 857.26061,728.94506 744.08455,855.92989 h -13.80938 v -13.8093 z"
           sodipodi:nodetypes="ccccc" /></g></g></g></svg>
